<?xml version="1.0" encoding="utf-8"?>
<!-- Generator: Adobe Illustrator 23.0.1, SVG Export Plug-In . SVG Version: 6.00 Build 0)  -->
<svg version="1.1" id="Layer_1" xmlns="http://www.w3.org/2000/svg" xmlns:xlink="http://www.w3.org/1999/xlink" x="0px" y="0px"
	 viewBox="0 0 428.2 815.6" style="enable-background:new 0 0 428.2 815.6;" xml:space="preserve">
<style type="text/css">
	.st0{fill:url(#Rectangle_3_1_);}
	.st1{opacity:0.1;}
	.st2{fill:#FFFFFF;}
</style>
<g id="Group_250" transform="translate(66.171 122.617)">
	
		<linearGradient id="Rectangle_3_1_" gradientUnits="userSpaceOnUse" x1="-221.4607" y1="521.8444" x2="-221.4607" y2="520.8444" gradientTransform="matrix(428 0 0 -814 94933.1875 424660.3438)">
		<stop  offset="0" style="stop-color:#04B450"/>
		<stop  offset="1" style="stop-color:#0585D3"/>
	</linearGradient>
	<rect id="Rectangle_3" x="-66" y="-121" class="st0" width="428" height="814"/>
	<g id="Group_185" transform="translate(-1890.035 -429.253)" class="st1">
		<g id="Group_184" transform="translate(1823.864 306.636)">
			<g id="Group_6" transform="translate(0)">
				<path id="Path_16" class="st2" d="M374.6,388.9c-133.9,0-243.2-109.3-243.2-243.2C131.3,93.2,148.2,42.1,179.6,0
					C114.9,47,73.8,123.4,73.8,210.3c0,144.5,117.5,260.9,260.8,260.9c130.4,0,238.5-96.3,258.5-220.9
					C553.3,334.9,468.2,389,374.6,388.9z"/>
				<path id="Path_17" class="st2" d="M327.6,529.9c-173.9,0-316.1-141-316.1-316.1C11.2,39.6,152.1-101.9,326.3-102.2
					c0.4,0,0.9,0,1.3,0c32.9,0,64.6,4.7,94,14.1c-45.5-21.7-95.3-32.9-145.7-32.9C87.9-119.8-66,34.1-66,223.3
					S87.9,566.4,277.1,566.4c96.3,0,183.3-40,245.6-103.4C468.6,505.2,401.7,529.9,327.6,529.9z"/>
				<path id="Path_18" class="st2" d="M521.5-11.7c19.8,27.3,30.5,60.2,30.5,94c0,88.1-71.7,161-161,161c-88.1,0-161-71.7-161-161
					c-0.1-43.9,17.7-85.9,49.3-116.3C228.9,0,196,58.8,196,124.6c0,105.7,85.8,191.5,191.5,191.5s191.5-85.8,191.5-191.5
					C577.9,70.5,556.7,22.3,521.5-11.7z"/>
			</g>
		</g>
	</g>
</g>
</svg>
