<svg id="booking" xmlns="http://www.w3.org/2000/svg" width="16.692" height="16.692" viewBox="0 0 16.692 16.692">
  <path id="Path_199" data-name="Path 199" d="M14.894,1.048H13.55V.489a.489.489,0,0,0-.978,0v.559H10.407V.489a.489.489,0,0,0-.978,0v.559H7.264V.489a.489.489,0,0,0-.978,0v.559H4.121V.489a.489.489,0,0,0-.978,0v.559H1.8A1.8,1.8,0,0,0,0,2.846V14.894a1.8,1.8,0,0,0,1.8,1.8h13.1a1.8,1.8,0,0,0,1.8-1.8V2.846a1.8,1.8,0,0,0-1.8-1.8ZM1.8,2.026H3.143v.559a.489.489,0,0,0,.978,0V2.026H6.286v.559a.489.489,0,1,0,.978,0V2.026H9.429v.559a.489.489,0,1,0,.978,0V2.026h2.165v.559a.489.489,0,1,0,.978,0V2.026h1.344a.821.821,0,0,1,.821.821V4.19H.978V2.846a.821.821,0,0,1,.82-.821Zm13.1,13.689H1.8a.821.821,0,0,1-.82-.821V5.169H15.714v9.725A.821.821,0,0,1,14.894,15.714Z" fill="#fff"/>
  <path id="Path_200" data-name="Path 200" d="M74.883,208.867h-2.1a.489.489,0,0,0-.489.489v2.1a.489.489,0,0,0,.489.489h2.1a.489.489,0,0,0,.489-.489v-2.1A.489.489,0,0,0,74.883,208.867Zm-.489,2.1H73.277v-1.117h1.117Z" transform="translate(-69.942 -202.057)" fill="#fff"/>
  <path id="Path_201" data-name="Path 201" d="M348.017,208.867h-2.1a.489.489,0,0,0-.489.489v2.1a.489.489,0,0,0,.489.489h2.1a.489.489,0,0,0,.489-.489v-2.1A.489.489,0,0,0,348.017,208.867Zm-.489,2.1h-1.117v-1.117h1.117Z" transform="translate(-334.171 -202.057)" fill="#fff"/>
  <path id="Path_202" data-name="Path 202" d="M74.883,337.4h-2.1a.489.489,0,0,0-.489.489v2.1a.489.489,0,0,0,.489.489h2.1a.489.489,0,0,0,.489-.489v-2.1A.489.489,0,0,0,74.883,337.4Zm-.489,2.1H73.277v-1.117h1.117Z" transform="translate(-69.942 -326.4)" fill="#fff"/>
  <path id="Path_203" data-name="Path 203" d="M348.017,337.4h-2.1a.489.489,0,0,0-.489.489v2.1a.489.489,0,0,0,.489.489h2.1a.489.489,0,0,0,.489-.489v-2.1A.489.489,0,0,0,348.017,337.4Zm-.489,2.1h-1.117v-1.117h1.117Z" transform="translate(-334.171 -326.4)" fill="#fff"/>
  <path id="Path_204" data-name="Path 204" d="M211.449,337.4h-2.1a.489.489,0,0,0-.489.489v2.1a.489.489,0,0,0,.489.489h2.1a.489.489,0,0,0,.489-.489v-2.1A.489.489,0,0,0,211.449,337.4Zm-.489,2.1h-1.117v-1.117h1.117Z" transform="translate(-202.056 -326.4)" fill="#fff"/>
  <path id="Path_205" data-name="Path 205" d="M209.284,218.423l-1.136,1.136-.4-.395a.489.489,0,0,0-.692.692l.741.741a.489.489,0,0,0,.692,0l1.481-1.482a.489.489,0,0,0-.692-.692Z" transform="translate(-200.172 -211.163)" fill="#fff"/>
</svg>
