<svg xmlns="http://www.w3.org/2000/svg" width="16.757" height="18.001" viewBox="0 0 16.757 18.001">
  <path id="calendar" d="M32.5,1.244H30.89V.563a.563.563,0,0,0-1.125,0v.681h-7.4V.563a.563.563,0,0,0-1.125,0v.681H19.626a1.943,1.943,0,0,0-1.941,1.941V16.06A1.943,1.943,0,0,0,19.626,18H32.5a1.943,1.943,0,0,0,1.941-1.941V14.645a.563.563,0,0,0-1.125,0V16.06a.817.817,0,0,1-.816.816H19.626a.817.817,0,0,1-.816-.816V6.632H33.317v2.3a.563.563,0,0,0,1.125,0V3.185A1.943,1.943,0,0,0,32.5,1.244ZM18.81,5.507V3.185a.817.817,0,0,1,.816-.816h1.612V3.05a.563.563,0,1,0,1.125,0V2.369h7.4V3.05a.563.563,0,1,0,1.125,0V2.369H32.5a.817.817,0,0,1,.816.816V5.507ZM30.9,13.941l1.624-1.624h-6.3a.563.563,0,0,1,0-1.125h6.3L30.9,9.567a.563.563,0,1,1,.8-.8l2.584,2.584a.562.562,0,0,1,0,.8l-2.584,2.584a.563.563,0,0,1-.8-.8Z" transform="translate(-17.685)" fill="#fff"/>
</svg>
