<svg xmlns="http://www.w3.org/2000/svg" width="15.879" height="18.039" viewBox="0 0 15.879 18.039">
  <g id="contact-book" transform="translate(2.082)">
    <path id="Path_274" data-name="Path 274" d="M11.654,0H1.5A2.148,2.148,0,0,0-.643,2.148v.928H-1.652a.429.429,0,0,0-.43.43.429.429,0,0,0,.43.43h1V6.752h-1a.429.429,0,0,0-.43.43.429.429,0,0,0,.43.43h1v2.818h-1a.429.429,0,0,0-.43.43.429.429,0,0,0,.43.43h1V14.1h-1a.429.429,0,0,0-.43.43.429.429,0,0,0,.43.43h1v.928A2.148,2.148,0,0,0,1.5,18.039H11.649A2.148,2.148,0,0,0,13.8,15.892V2.148A2.144,2.144,0,0,0,11.654,0Zm1.289,15.892a1.292,1.292,0,0,1-1.289,1.289H1.5A1.292,1.292,0,0,1,.216,15.892v-.928h1a.43.43,0,1,0,0-.859h-1V11.287h1a.43.43,0,1,0,0-.859h-1V7.611h1a.43.43,0,1,0,0-.859h-1V3.934h1a.43.43,0,1,0,0-.859h-1V2.148A1.292,1.292,0,0,1,1.5.859H11.654a1.292,1.292,0,0,1,1.289,1.289Zm0,0" fill="#fff"/>
    <path id="Path_275" data-name="Path 275" d="M191.376,141.791a2.083,2.083,0,1,0-2.083-2.083A2.083,2.083,0,0,0,191.376,141.791Zm0-3.311a1.224,1.224,0,1,1-1.224,1.224A1.224,1.224,0,0,1,191.376,138.48Zm0,0" transform="translate(-184.799 -132.896)" fill="#fff"/>
    <path id="Path_276" data-name="Path 276" d="M160.351,279a3.209,3.209,0,0,0-3.187,3.3.431.431,0,0,0,.43.43h5.515a.431.431,0,0,0,.43-.43A3.209,3.209,0,0,0,160.351,279Zm-2.294,2.869a2.314,2.314,0,0,1,4.587,0Zm0,0" transform="translate(-153.774 -269.413)" fill="#fff"/>
  </g>
</svg>
