<svg xmlns="http://www.w3.org/2000/svg" width="11.999" height="11.999" viewBox="0 0 11.999 11.999">
  <g id="edit" transform="translate(0 -0.501)">
    <path id="Path_260" data-name="Path 260" d="M9.5,89.816a.5.5,0,0,0-.5.5v4a.5.5,0,0,1-.5.5h-7a.5.5,0,0,1-.5-.5v-7a.5.5,0,0,1,.5-.5h4a.5.5,0,0,0,0-1h-4a1.5,1.5,0,0,0-1.5,1.5v7a1.5,1.5,0,0,0,1.5,1.5h7a1.5,1.5,0,0,0,1.5-1.5v-4a.5.5,0,0,0-.5-.5Zm0,0" transform="translate(0 -83.316)" fill="#fff"/>
    <path id="Path_261" data-name="Path 261" d="M182.235,72.218a.253.253,0,0,0-.068.127l-.353,1.768a.25.25,0,0,0,.246.3.238.238,0,0,0,.049,0l1.767-.353a.249.249,0,0,0,.128-.069l3.956-3.956-1.767-1.767Zm0,0" transform="translate(-177.548 -66.173)" fill="#fff"/>
    <path id="Path_262" data-name="Path 262" d="M393.9.867a1.251,1.251,0,0,0-1.767,0l-.692.692,1.767,1.767.692-.692a1.25,1.25,0,0,0,0-1.767Zm0,0" transform="translate(-382.272 0)" fill="#fff"/>
  </g>
</svg>
