<svg xmlns="http://www.w3.org/2000/svg" width="11.25" height="16" viewBox="0 0 11.25 16">
  <g id="google-maps" transform="translate(-76)">
    <g id="Google_Maps_2_" transform="translate(76.3 5.109)">
      <g id="Group_137" data-name="Group 137" transform="translate(0)">
        <path id="Path_246" data-name="Path 246" d="M91.441,166.781l-1.717,2.655-1.639.7a11.038,11.038,0,0,1-2.484-4.078l.981-1.825,1.578-.734a3.1,3.1,0,0,0-.047.516,2.821,2.821,0,0,0,2.812,2.812A3.1,3.1,0,0,0,91.441,166.781Z" transform="translate(-85.6 -163.5)" fill="#ffda2d"/>
      </g>
    </g>
    <path id="Path_247" data-name="Path 247" d="M242.782,17.472a3.07,3.07,0,0,0,.047-.513,2.821,2.821,0,0,0-2.809-2.812h0a3.1,3.1,0,0,0-.516.047l2.494-2.494a5.611,5.611,0,0,1,3.281,3.281l-2.494,2.494Z" transform="translate(-158.391 -11.334)" fill="#80aef8"/>
    <path id="Path_248" data-name="Path 248" d="M261.288,14.981l-.853,1.666-1.641.828v0a3.07,3.07,0,0,0,.047-.513,2.821,2.821,0,0,0-2.809-2.812h0v-.47l.562-1.249,1.416-.728A5.611,5.611,0,0,1,261.288,14.981Z" transform="translate(-174.404 -11.334)" fill="#4086f4"/>
    <g id="Group_138" data-name="Group 138" transform="translate(78.784 3.647)">
      <path id="Path_249" data-name="Path 249" d="M173.2,116.7l-2.494,2.494a2.841,2.841,0,0,1-2.25,2.25h0l-2.715,2.715-.641.641c.159.178.3.338.45.506,1.031,1.172,1.922,2.247,1.922,3.278a.469.469,0,1,0,.937,0c0-1.031.891-2.106,1.922-3.278,1.444-1.622,3.234-3.647,3.234-6.628A5.372,5.372,0,0,0,173.2,116.7Z" transform="translate(-165.098 -116.7)" fill="#59c36a"/>
      <path id="Path_250" data-name="Path 250" d="M261.289,116.7l-2.494,2.494h0a2.841,2.841,0,0,1-2.25,2.25h0l-.515.515v7.095a.464.464,0,0,0,.468-.469c0-1.031.891-2.106,1.922-3.278,1.444-1.622,3.234-3.647,3.234-6.628A5.371,5.371,0,0,0,261.289,116.7Z" transform="translate(-253.189 -116.7)" fill="#00a66c"/>
    </g>
    <g id="Google_Maps_3_" transform="translate(81.626 8.391)">
      <path id="Path_251" data-name="Path 251" d="M256.031,269.015l.515-.515a3.111,3.111,0,0,1-.515.047Z" transform="translate(-256.031 -268.5)" fill="#fdbf00"/>
    </g>
    <path id="Path_252" data-name="Path 252" d="M134.753.366l-2.494,2.494a2.845,2.845,0,0,0-1.472.778l-1.45-.606L128.8,1.65A5.573,5.573,0,0,1,132.775,0,5.372,5.372,0,0,1,134.753.366Z" transform="translate(-51.15)" fill="#4086f4"/>
    <path id="Path_253" data-name="Path 253" d="M256.031,2.346,258.008.369A5.371,5.371,0,0,0,256.031,0V2.346Z" transform="translate(-174.405 -0.003)" fill="#4175df"/>
    <path id="Path_254" data-name="Path 254" d="M79.637,54.787a2.846,2.846,0,0,0-.778,1.472L76.3,58.819a7.078,7.078,0,0,1-.3-2.044A5.572,5.572,0,0,1,77.65,52.8Z" transform="translate(0 -51.15)" fill="#f03800"/>
  </g>
</svg>
