<svg xmlns="http://www.w3.org/2000/svg" width="14.709" height="14.709" viewBox="0 0 14.709 14.709">
  <g id="layer1" transform="translate(-0.529 -291.179)">
    <path id="path52" d="M7.876,291.179a.737.737,0,0,0-.728.747v5.911a.736.736,0,1,0,1.472,0v-5.911a.737.737,0,0,0-.744-.747Zm4.291,1.482q-.036,0-.072,0a.74.74,0,0,0-.408,1.3,5.884,5.884,0,1,1-7.628.022.741.741,0,0,0,.082-1.042.733.733,0,0,0-1.037-.082,7.409,7.409,0,0,0,4.784,13.023,7.409,7.409,0,0,0,4.751-13.045.734.734,0,0,0-.471-.182Z" transform="translate(0)" fill="#fff"/>
  </g>
</svg>
