<svg xmlns="http://www.w3.org/2000/svg" width="212" height="62.026" viewBox="0 0 212 62.026">
  <g id="Group_173" data-name="Group 173" transform="translate(-53.45 -154.057)">
    <rect id="Rectangle_1" data-name="Rectangle 1" width="212" height="62.026" transform="translate(53.45 154.057)" fill="none"/>
    <g id="Group_4" data-name="Group 4" transform="translate(172.6 191.008)">
      <path id="Path_4" data-name="Path 4" d="M179.85,193.357h3.111v5.562h5.75v-5.562h3.111V207.5h-3.111v-5.656h-5.75V207.5H179.85Z" transform="translate(-179.85 -193.263)" fill="#009540"/>
      <path id="Path_5" data-name="Path 5" d="M198.25,193.357H208.9v2.734h-7.541v2.828h6.693v2.734h-6.693v2.922H209v2.734H198.25V193.357Z" transform="translate(-180.905 -193.263)" fill="#009540"/>
      <path id="Path_6" data-name="Path 6" d="M219.483,193.257h2.828l6.033,14.234h-3.205l-1.32-3.111H217.88l-1.32,3.111H213.45Zm3.3,8.3-1.885-4.525-1.885,4.525Z" transform="translate(-181.777 -193.257)" fill="#009540"/>
      <path id="Path_7" data-name="Path 7" d="M233.75,193.357h3.111v11.312h7.07V207.5H233.75Z" transform="translate(-182.942 -193.263)" fill="#009540"/>
      <path id="Path_8" data-name="Path 8" d="M250.186,196.185H245.85v-2.828h11.689v2.828H253.2V207.4h-3.016Z" transform="translate(-183.636 -193.263)" fill="#009540"/>
      <path id="Path_9" data-name="Path 9" d="M262.95,193.357h3.111v5.562h5.75v-5.562h3.111V207.5h-3.111v-5.656h-5.75V207.5H262.95Z" transform="translate(-184.617 -193.263)" fill="#009540"/>
    </g>
    <g id="Group_5" data-name="Group 5" transform="translate(120.095 164.897)">
      <path id="Path_10" data-name="Path 10" d="M131.974,176.892l-7.447-10.935h5.75l4.619,7.164,1.7-2.545a10.119,10.119,0,0,1,8.578-4.619h0l-7.447,10.84,7.73,11.406H139.7l-5-7.635-1.98,3.016a10.118,10.118,0,0,1-8.578,4.619h0Z" transform="translate(-124.15 -165.58)" fill="#0069b3"/>
      <path id="Path_11" data-name="Path 11" d="M154.05,165.957H163.1c5.279,0,8.484,3.111,8.484,7.635v.094c0,5.184-3.959,7.824-8.955,7.824h-3.676V188.2h-4.9Zm8.767,11.217c2.451,0,3.865-1.414,3.865-3.393v-.094c0-2.168-1.508-3.393-3.959-3.393h-3.771v6.787h3.865Z" transform="translate(-125.865 -165.58)" fill="#0069b3"/>
      <path id="Path_12" data-name="Path 12" d="M179.844,165.957h10.18a8.8,8.8,0,0,1,6.5,2.262,7.057,7.057,0,0,1,1.885,5.09v.094a6.92,6.92,0,0,1-4.807,6.881l5.467,7.918h-5.75l-4.807-7.07h-3.865v7.07h-4.9l.094-22.246Zm9.9,10.84c2.357,0,3.771-1.32,3.771-3.111v-.094c0-2.074-1.508-3.205-3.865-3.205h-4.9v6.41Z" transform="translate(-127.339 -165.58)" fill="#0069b3"/>
      <path id="Path_13" data-name="Path 13" d="M207.65,165.957h16.779v4.336H212.552v4.525h10.463v4.336H212.552v4.713h12.066V188.2H207.65V165.957Z" transform="translate(-128.94 -165.58)" fill="#0069b3"/>
      <path id="Path_14" data-name="Path 14" d="M231.95,184.881l2.922-3.488a10.051,10.051,0,0,0,6.6,2.734c1.98,0,3.2-.754,3.2-2.074v-.094c0-1.225-.754-1.885-4.525-2.828-4.525-1.131-7.353-2.357-7.353-6.787v-.094c0-4.053,3.2-6.693,7.824-6.693a13.171,13.171,0,0,1,8.3,2.828l-2.545,3.676a9.954,9.954,0,0,0-5.75-2.168c-1.885,0-2.828.848-2.828,1.98v.094c0,1.414.943,1.98,4.807,2.922,4.525,1.131,7.07,2.828,7.07,6.693v.094c0,4.43-3.394,6.881-8.2,6.881A14.335,14.335,0,0,1,231.95,184.881Z" transform="translate(-130.333 -165.557)" fill="#0069b3"/>
      <path id="Path_15" data-name="Path 15" d="M256.55,184.881l2.922-3.488a10.051,10.051,0,0,0,6.6,2.734c1.98,0,3.2-.754,3.2-2.074v-.094c0-1.225-.754-1.885-4.525-2.828-4.525-1.131-7.353-2.357-7.353-6.787v-.094c0-4.053,3.2-6.693,7.824-6.693a13.172,13.172,0,0,1,8.3,2.828l-2.545,3.676a9.954,9.954,0,0,0-5.75-2.168c-1.885,0-2.828.848-2.828,1.98v.094c0,1.414.943,1.98,4.807,2.922,4.525,1.131,7.07,2.828,7.07,6.693v.094c0,4.43-3.394,6.881-8.2,6.881A14.518,14.518,0,0,1,256.55,184.881Z" transform="translate(-131.745 -165.557)" fill="#0069b3"/>
    </g>
    <g id="Group_6" data-name="Group 6" transform="translate(56.089 157.45)">
      <path id="Path_16" data-name="Path 16" d="M92.282,199.158a19.536,19.536,0,0,1-15.648-31.2A20.712,20.712,0,0,0,68.15,184.83a20.958,20.958,0,0,0,41.665,3.2A19.367,19.367,0,0,1,92.282,199.158Z" transform="translate(-56.933 -158.248)" fill="#0069b3"/>
      <path id="Path_17" data-name="Path 17" d="M87.828,209.879a25.357,25.357,0,1,1,0-50.714A24.747,24.747,0,0,1,95.37,160.3a27.226,27.226,0,0,0-11.689-2.639,27.572,27.572,0,1,0,19.8,46.849A25.153,25.153,0,0,1,87.828,209.879Z" transform="translate(-56.25 -157.657)" fill="#009540"/>
      <path id="Path_18" data-name="Path 18" d="M104.661,166.848a12.893,12.893,0,1,1-19.418-1.791,15.38,15.38,0,1,0,24.037,12.726A15.529,15.529,0,0,0,104.661,166.848Z" transform="translate(-57.529 -158.081)" fill="#009540"/>
    </g>
  </g>
</svg>
