<svg xmlns="http://www.w3.org/2000/svg" xmlns:xlink="http://www.w3.org/1999/xlink" width="388" height="136" viewBox="0 0 388 136">
  <defs>
    <linearGradient id="linear-gradient" x1="0.815" y1="0.158" x2="0.268" y2="1" gradientUnits="objectBoundingBox">
      <stop offset="0" stop-color="#10b3fb"/>
      <stop offset="1" stop-color="#0a8be4"/>
    </linearGradient>
    <filter id="Rectangle_20" x="-30" y="-26" width="448" height="196" filterUnits="userSpaceOnUse">
      <feOffset dy="4" input="SourceAlpha"/>
      <feGaussianBlur stdDeviation="10" result="blur"/>
      <feFlood flood-color="#484848"/>
      <feComposite operator="in" in2="blur"/>
      <feComposite in="SourceGraphic"/>
    </filter>
    <clipPath id="clip-path">
      <g transform="matrix(1, 0, 0, 1, 0, 0)" filter="url(#Rectangle_20)">
        <rect id="Rectangle_20-2" data-name="Rectangle 20" width="388" height="136" rx="12" transform="translate(20 394)" fill="url(#linear-gradient)"/>
      </g>
    </clipPath>
    <filter id="Path_198" x="-30" y="-26" width="448" height="196" filterUnits="userSpaceOnUse">
      <feOffset dy="4" input="SourceAlpha"/>
      <feGaussianBlur stdDeviation="10" result="blur-2"/>
      <feFlood flood-color="#b5cffb"/>
      <feComposite operator="in" in2="blur-2"/>
      <feComposite in="SourceGraphic"/>
    </filter>
  </defs>
  <g id="Mask_Group_1" data-name="Mask Group 1" transform="translate(-20 -394)" clip-path="url(#clip-path)">
    <g transform="matrix(1, 0, 0, 1, 20, 394)" filter="url(#Path_198)">
      <path id="Path_198-2" data-name="Path 198" d="M12,0H376a12,12,0,0,1,12,12V124a12,12,0,0,1-12,12H12A12,12,0,0,1,0,124V12A12,12,0,0,1,12,0Z" fill="#fff"/>
    </g>
    <text id="Premium_immediate_Shifts_" data-name="Premium/immediate 
Shifts!" transform="translate(49 455)" fill="#101010" font-size="20" font-family="SFProDisplay-Bold, SF Pro Display" font-weight="700"><tspan x="0" y="0">Premium/immediate </tspan><tspan x="0" y="24">Shifts!</tspan></text>
    <g id="Group_3" data-name="Group 3" transform="translate(-66.078 365)" opacity="0.05">
      <g id="Group_2" data-name="Group 2" transform="translate(76.05 8.667)">
        <g id="Group_1" data-name="Group 1">
          <path id="Path_1" data-name="Path 1" d="M118.6,257.732a56.212,56.212,0,0,0,45.023-89.775,59.6,59.6,0,0,1,24.41,48.549A60.3,60.3,0,0,1,68.15,225.728,55.724,55.724,0,0,0,118.6,257.732Z" transform="translate(-68.15 -140.021)" fill="#fff"/>
          <path id="Path_2" data-name="Path 2" d="M101.273,307.916a72.96,72.96,0,0,0,0-145.919,71.205,71.205,0,0,0-21.7,3.255,78.336,78.336,0,0,1,33.632-7.594,79.333,79.333,0,1,1-56.957,134.8A72.372,72.372,0,0,0,101.273,307.916Z" transform="translate(-39.976 -157.657)" fill="#fff"/>
          <path id="Path_3" data-name="Path 3" d="M91.84,170.21a37.1,37.1,0,1,0,55.872-5.153A44.251,44.251,0,1,1,78.55,201.672,44.681,44.681,0,0,1,91.84,170.21Z" transform="translate(-75.295 -144.986)" fill="#fff"/>
        </g>
      </g>
    </g>
    <g id="Group_101" data-name="Group 101" transform="translate(1016.711 727.89)">
      <g id="Group_37" data-name="Group 37" transform="translate(-766.947 -312.14)">
        <g id="Group_13" data-name="Group 13" transform="translate(25.643 15.442)">
          <path id="Path_30" data-name="Path 30" d="M-695.136-266.744s6.757,3.923,8.3,8.99c2.475,8.115.432,20.971-5.549,19.386-4.858-1.288-1.015-11.972-3.782-14.738s-6.067-5.673-2.767-13.568Z" transform="translate(700.691 266.744)" fill="#2f2962"/>
          <path id="Path_31" data-name="Path 31" d="M-686.988-266.51a.019.019,0,0,0-.015.036,17.686,17.686,0,0,1,8.536,8.228,16.271,16.271,0,0,1-.04,13.683c-.022.047.046.089.07.041C-674.367-252.635-677.886-263.717-686.988-266.51Z" transform="translate(692.584 266.602)" fill="#2f2962"/>
          <path id="Path_32" data-name="Path 32" d="M-696.8-251.51a30.687,30.687,0,0,0-2.564-3.535c-2.313-3.262-1.629-7.26-.24-10.744.018-.045-.057-.077-.078-.033-1.418,2.851-2.223,6.122-1.009,9.2a11.758,11.758,0,0,0,2.209,3.272,12.322,12.322,0,0,1,1.717,2.3,10.379,10.379,0,0,1,.85,3.741c0,.022.036.023.034,0A10.2,10.2,0,0,0-696.8-251.51Z" transform="translate(701.281 266.195)" fill="#2f2962"/>
        </g>
        <g id="Group_22" data-name="Group 22" transform="translate(0 30.321)">
          <path id="Path_33" data-name="Path 33" d="M-760.193-190.771s-6.8,13.35-6.753,16.854.865,6.575,2.188,6.92,6.7-6.347,7.571-7.31,4.495-12.668,5.625-14.8S-757.591-193.739-760.193-190.771Z" transform="translate(766.947 206.39)" fill="#f5bfa9"/>
          <path id="Path_34" data-name="Path 34" d="M-742.54-226.946c-2.636,1.052-6.992,2.548-8.146,3.756s-12.461,15.894-12.7,17.207,5.288,6.455,7.812,6.937a8.279,8.279,0,0,0,5.761-1.146C-749.027-200.778-742.54-226.946-742.54-226.946Z" transform="translate(764.783 227.608)" fill="#bfddda"/>
          <g id="Group_15" data-name="Group 15" transform="translate(6.37)">
            <path id="Path_35" data-name="Path 35" d="M-707.889-145.063c-6.841,4.817-25.258,5.942-28.791,5.122s-12.058-4.121-12.838-5.263-1.741-16.3-.571-24.687c.543-3.9,2.035-10.317,3.454-16.089,1.221-4.975,2.38-9.463,2.821-11.453a3.881,3.881,0,0,0,.175-1.079c-.3-.193-4.4-5.535-3.584-9.164s10.7-19.136,12.465-20.306,4.556-.48,7.23-.249c3.03.266,9.2,5.077,9.995,7.682.65,2.137,1.091,16.456,1.385,21.951a18.692,18.692,0,0,0,.164,2.12c.2.582,1.832,7.954,3.324,13.946.61,2.453,1.2,4.675,1.656,6.105C-709.427-171.508-706.646-145.939-707.889-145.063Z" transform="translate(750.633 228.641)" fill="#bfddda"/>
            <path id="Path_36" data-name="Path 36" d="M-736.94-200.913a.077.077,0,0,0-.134-.078,47.337,47.337,0,0,0-2.478,4.087c.277-.867.606-1.713.961-2.57.012-.028-.034-.046-.048-.02a13.239,13.239,0,0,0-1.322,3.362c-.1.2-.213.4-.315.594a20.408,20.408,0,0,0-2.119,5.15c-.6,3.055,1.541,6.758,3.617,8.869.079.08.191-.038.122-.122-2.3-2.788-4.166-6.326-2.836-9.959A63.931,63.931,0,0,1-736.94-200.913Z" transform="translate(745.674 211.81)" fill="#2f2962"/>
            <path id="Path_37" data-name="Path 37" d="M-706.42-136.494a31.671,31.671,0,0,1-3.381.3,55.515,55.515,0,0,1-11.413-.763,54.787,54.787,0,0,1-11.595-3.149,6.99,6.99,0,0,0-4.189-.458c-.848.141-1.69.328-2.538.48-.289.051-.571.1-.859.141,1.221-4.975,2.38-9.463,2.821-11.453,1.9-.48,3.855-.8,5.721-1.2,2.968-.639,5.523,2.1,8.683,2.046,4.048-.068,8.717-3.51,12.442-2.3.277.091.548.187.82.288a18.692,18.692,0,0,0,.164,2.12C-709.547-149.858-707.913-142.486-706.42-136.494Z" transform="translate(744.393 182.604)" fill="#a1c9c4"/>
            <g id="Group_14" data-name="Group 14" transform="translate(8.857 6.638)">
              <path id="Path_38" data-name="Path 38" d="M-716.68-185.923a26.426,26.426,0,0,1-.681-13.2,77.249,77.249,0,0,1,3.755-12.456c.02-.053-.07-.092-.093-.039a61.649,61.649,0,0,0-4.045,13.45c-.7,3.882-.809,8.363.828,12.051-.052,0-3.808,38.462.361,56.142.025.108.191.062.166-.046C-720.413-147.824-716.661-185.857-716.68-185.923Z" transform="translate(722.203 211.642)" fill="#2f2962"/>
              <path id="Path_39" data-name="Path 39" d="M-707.7-197.123c-.121.212-.59.411-.744.075-.144-.317.134-.766.508-.607a.04.04,0,0,0,.04-.068c-.5-.319-.951.344-.749.8.194.443,1.008.315.982-.191A.02.02,0,0,0-707.7-197.123Z" transform="translate(716.214 203.21)" fill="#2f2962"/>
              <path id="Path_40" data-name="Path 40" d="M-712.551-166.82c-.121.212-.59.411-.744.075-.145-.317.134-.766.508-.607a.04.04,0,0,0,.04-.068c-.5-.319-.951.344-.749.8.194.443,1.008.315.982-.191A.02.02,0,0,0-712.551-166.82Z" transform="translate(719.171 184.74)" fill="#2f2962"/>
              <path id="Path_41" data-name="Path 41" d="M-710.313-150.8c-.121.212-.59.411-.744.075-.145-.317.134-.766.508-.607a.04.04,0,0,0,.04-.068c-.5-.319-.95.344-.749.8.195.443,1.008.315.982-.191A.02.02,0,0,0-710.313-150.8Z" transform="translate(717.806 174.979)" fill="#2f2962"/>
              <path id="Path_42" data-name="Path 42" d="M-711.633-118.885c-.121.212-.59.411-.744.074-.145-.317.134-.766.508-.606a.04.04,0,0,0,.04-.069c-.5-.319-.951.344-.749.8.194.442,1.008.315.982-.192A.02.02,0,0,0-711.633-118.885Z" transform="translate(718.612 155.524)" fill="#2f2962"/>
              <path id="Path_43" data-name="Path 43" d="M-713.872-85.332c-.121.212-.59.411-.743.075-.145-.317.134-.766.508-.607a.04.04,0,0,0,.04-.068c-.5-.319-.951.344-.749.8.194.443,1.008.315.982-.191A.02.02,0,0,0-713.872-85.332Z" transform="translate(719.976 135.074)" fill="#2f2962"/>
              <path id="Path_44" data-name="Path 44" d="M-713.872-54.011c-.121.212-.59.411-.743.074-.145-.317.134-.766.508-.606a.04.04,0,0,0,.04-.069c-.5-.318-.951.344-.749.8.194.442,1.008.315.982-.192A.02.02,0,0,0-713.872-54.011Z" transform="translate(719.976 115.984)" fill="#2f2962"/>
              <path id="Path_45" data-name="Path 45" d="M-710.313-135.878c-.121.213-.59.412-.744.075-.145-.317.134-.766.508-.606a.04.04,0,0,0,.04-.069c-.5-.319-.95.344-.749.8.195.443,1.008.315.982-.191A.02.02,0,0,0-710.313-135.878Z" transform="translate(717.806 165.881)" fill="#2f2962"/>
              <path id="Path_46" data-name="Path 46" d="M-712.954-102.521c-.121.212-.59.411-.744.075-.144-.317.134-.766.508-.607a.04.04,0,0,0,.04-.068c-.5-.319-.951.344-.749.8.194.443,1.008.315.982-.191A.02.02,0,0,0-712.954-102.521Z" transform="translate(719.416 145.55)" fill="#2f2962"/>
              <path id="Path_47" data-name="Path 47" d="M-713.872-69.311c-.121.212-.59.411-.743.075-.145-.317.134-.766.508-.607a.04.04,0,0,0,.04-.068c-.5-.319-.951.344-.749.8.194.443,1.008.315.982-.191A.02.02,0,0,0-713.872-69.311Z" transform="translate(719.976 125.309)" fill="#2f2962"/>
              <path id="Path_48" data-name="Path 48" d="M-712.551-21.8c-.121.212-.59.411-.744.075-.145-.317.134-.766.508-.607a.04.04,0,0,0,.04-.068c-.5-.319-.951.344-.749.8.194.443,1.008.315.982-.191A.02.02,0,0,0-712.551-21.8Z" transform="translate(719.171 96.352)" fill="#2f2962"/>
              <path id="Path_49" data-name="Path 49" d="M-709.91-6.249c-.121.212-.59.411-.743.075-.145-.317.134-.766.508-.607a.04.04,0,0,0,.04-.068c-.5-.319-.951.344-.749.8.194.443,1.008.315.982-.191A.02.02,0,0,0-709.91-6.249Z" transform="translate(717.561 86.873)" fill="#2f2962"/>
              <path id="Path_50" data-name="Path 50" d="M-713.872-38.83c-.121.212-.59.411-.743.075-.145-.317.134-.766.508-.607a.04.04,0,0,0,.04-.068c-.5-.319-.951.344-.749.8.194.443,1.008.315.982-.191A.02.02,0,0,0-713.872-38.83Z" transform="translate(719.976 106.731)" fill="#2f2962"/>
              <path id="Path_51" data-name="Path 51" d="M-711.231-181.962c-.121.212-.59.411-.744.075-.145-.317.134-.766.508-.607a.04.04,0,0,0,.04-.068c-.5-.319-.95.344-.749.8.194.443,1.008.315.982-.191A.02.02,0,0,0-711.231-181.962Z" transform="translate(718.366 193.969)" fill="#2f2962"/>
              <path id="Path_52" data-name="Path 52" d="M-721.284-151.805c-2.327-.518-4.39.153-6.655.554-.02,0-.015.034,0,.035a16.282,16.282,0,0,0,2.705-.358,18.656,18.656,0,0,1,3.92-.044A.1.1,0,0,0-721.284-151.805Z" transform="translate(727.951 175.287)" fill="#2f2962"/>
              <path id="Path_53" data-name="Path 53" d="M-702.75-151.913a8.237,8.237,0,0,1-7.15,1.7c-2.09-.483-3.926-1.387-6.09-.759-.032.009-.028.064.008.061,2.823-.3,5.3,1.45,8.091,1.415a7.569,7.569,0,0,0,5.31-2.252C-702.471-151.858-702.632-152-702.75-151.913Z" transform="translate(720.674 175.255)" fill="#2f2962"/>
            </g>
          </g>
          <g id="Group_17" data-name="Group 17" transform="translate(12.296 10.133)">
            <rect id="Rectangle_12" data-name="Rectangle 12" width="21.263" height="27.679" rx="4.095" transform="translate(0 4.9) rotate(-4.252)" fill="#e1916e"/>
            <g id="Group_16" data-name="Group 16" transform="translate(5.562)">
              <rect id="Rectangle_13" data-name="Rectangle 13" width="10.077" height="3.054" rx="1.527" transform="translate(0 3.056) rotate(-4.187)" fill="#bec1df"/>
              <path id="Path_54" data-name="Path 54" d="M-710.178-201.768l.114,1.564-1.237.091-.053-.718a.689.689,0,0,0-.737-.636l-1.635.12a.689.689,0,0,0-.636.736l.052.718-1.237.091-.114-1.565a.993.993,0,0,1,.921-1.066l3.495-.256A1,1,0,0,1-710.178-201.768Z" transform="translate(717.832 202.692)" fill="#bec1df"/>
            </g>
          </g>
          <path id="Path_55" data-name="Path 55" d="M-666.887-178.984c1.36,1.023,3.1,15.857,3.2,17.535s-1.9,4.892-2.436,5.029-5.658-1.77-6.9-3.407-1.939-16.508-1.683-17.413S-668.153-179.936-666.887-178.984Z" transform="translate(710.76 198.541)" fill="#f5bfa9"/>
          <g id="Group_19" data-name="Group 19" transform="translate(34.255 3.383)">
            <path id="Path_56" data-name="Path 56" d="M-677.706-219.979c.666.862,6.7,4.073,7.821,6.205s5,17.736,5.367,18.647-4.253,3.369-6.638,3.8a13.108,13.108,0,0,1-6.878-1.107C-679.207-193.073-677.706-219.979-677.706-219.979Z" transform="translate(678.773 219.979)" fill="#bfddda"/>
            <g id="Group_18" data-name="Group 18" transform="translate(0 5.98)">
              <path id="Path_57" data-name="Path 57" d="M-679.179-186.345c0-.03-.05-.032-.048,0,.26,4.8.36,9.611.228,14.412-.005.2.3.2.305,0A85.809,85.809,0,0,0-679.179-186.345Z" transform="translate(679.227 193.513)" fill="#2f2962"/>
              <path id="Path_58" data-name="Path 58" d="M-671.5-204.664a8.985,8.985,0,0,0-5.953,7.164c-.005.036.048.052.056.015a9.445,9.445,0,0,1,5.907-7.145C-671.468-204.637-671.476-204.671-671.5-204.664Z" transform="translate(678.145 204.665)" fill="#2f2962"/>
            </g>
          </g>
          <g id="Group_21" data-name="Group 21" transform="translate(2.189 24.452)">
            <g id="Group_20" data-name="Group 20" transform="translate(8.889 7.87)">
              <path id="Path_59" data-name="Path 59" d="M-704.916-136.124c-1.085.752-12.233,1.17-17.8.181a73.557,73.557,0,0,1-11.238-3.2c-2.657-1-4.607-1.956-4.624-2.493-.039-1.232,2.4-3.889,3.968-3.731s10.814-.684,14.144-.469c2.691.175,5.348.277,7.581.458a15.933,15.933,0,0,1,5.1.944C-705.86-143.45-704.916-136.124-704.916-136.124Z" transform="translate(738.58 145.871)" fill="#f5bfa9"/>
              <path id="Path_60" data-name="Path 60" d="M-712.887-145.378a26.9,26.9,0,0,1-2.595,1.758,30.249,30.249,0,0,1-8.627,3.465,33.459,33.459,0,0,1-9.848,1.012c-2.657-1-4.607-1.956-4.624-2.493-.039-1.232,2.4-3.889,3.968-3.731s10.814-.684,14.144-.469C-717.777-145.661-715.12-145.559-712.887-145.378Z" transform="translate(738.58 145.871)" fill="#bf847c"/>
              <path id="Path_61" data-name="Path 61" d="M-672.07-144.831c-.027,0-.034.043-.007.048,2.936.58,4.7,2.191,6.208,4.7.048.081.193.028.157-.066A7.125,7.125,0,0,0-672.07-144.831Z" transform="translate(698.057 145.238)" fill="#bf847c"/>
            </g>
            <path id="Path_62" data-name="Path 62" d="M-761.342-151.085c2.735,1.529,23.683-4.3,24.982-5.147.389-.255,5.98-.492,6.936-.615s2.573-1.154,2.666-1.722a2.39,2.39,0,0,0-.214-1.3c-.095-.231.542-1.126.478-1.534a5.185,5.185,0,0,0-.6-1.211c-.107-.232.139-1.252,0-1.543s-.8-.633-1-.887.191-.594-.259-.865c-1.278-.768-7.6,2.553-8.559,2.875s-9.8.408-12.09.671-6.069.5-8.456,2.638S-761.342-151.085-761.342-151.085Z" transform="translate(761.342 166.024)" fill="#f5bfa9"/>
            <path id="Path_63" data-name="Path 63" d="M-750.554-155.6c-3.352-.073-5.87,3.1-7.16,5.847a.04.04,0,0,0,.068.04c1.817-2.887,3.729-4.891,7.114-5.726A.082.082,0,0,0-750.554-155.6Z" transform="translate(759.134 159.669)" fill="#bf847c"/>
          </g>
        </g>
        <g id="Group_36" data-name="Group 36" transform="translate(12.506 0)">
          <g id="Group_23" data-name="Group 23" transform="translate(4.222 27.089)">
            <path id="Path_64" data-name="Path 64" d="M-713.956-236.788a11.706,11.706,0,0,0-5.785,3.813c-.993.975-3.866,7.087-3.859,8.145s5.368-3.539,6.511-3.521c.79.012,3.635,6.234,5.074,5.933,1.825-.383,5.175-5.725,5.191-8.569.005-.941-1.475-3.342-2.817-4.563A4.545,4.545,0,0,0-713.956-236.788Z" transform="translate(723.799 236.918)" fill="#bfddda"/>
            <path id="Path_65" data-name="Path 65" d="M-707.085-223.749c0-.022-.033-.026-.038-.005-1.1,4.485-4.466,8.283-5.2,8.39-.852.125-4.608-6.088-5.046-6.122-.814-.064-6.271,3.715-6.348,3.658-.061-.045.651-2.558,3.24-7.487a.019.019,0,0,0-.033-.02c-3,4.588-3.922,8.063-3.5,8.059.538-.005,4.232-2.632,6.473-3.8,1.066,1.494,4.258,6.131,5.038,6.132C-711.005-214.94-707.31-220.421-707.085-223.749Z" transform="translate(724.111 229.864)" fill="#2f2962"/>
          </g>
          <g id="Group_35" data-name="Group 35">
            <g id="Group_24" data-name="Group 24" transform="translate(10.319 20.309)">
              <path id="Path_66" data-name="Path 66" d="M-698.709-254.281s-.209,2.112-.473,4.57c-.038.324-.072.654-.11.984a45.5,45.5,0,0,1-1.358,7.039c-.347.671-3.361,3.6-5.775,3.2a2.381,2.381,0,0,1-2.051-2.76l.044-1.226v-.017l.077-2.42.209-6.313,8.26-2.711Z" transform="translate(708.497 254.281)" fill="#f5bfa9"/>
              <path id="Path_67" data-name="Path 67" d="M-698.489-254.281s-.209,2.112-.473,4.57c-2.436,2.887-5.7,5.065-9.173,4.8l.209-6.313,8.26-2.711Z" transform="translate(708.276 254.281)" fill="#bf847c"/>
            </g>
            <g id="Group_34" data-name="Group 34">
              <path id="Path_68" data-name="Path 68" d="M-732.853-274.938s2.056,11.385-2.068,15.98c0,0,4.451-2.5,4.528-11.4Z" transform="translate(734.921 287.18)" fill="#2f2962"/>
              <path id="Path_69" data-name="Path 69" d="M-726.379-300.706s-3.672.524-4.831,5.047a9.709,9.709,0,0,0,1.726,7.808C-728.672-287.193-724.337-298.2-726.379-300.706Z" transform="translate(732.805 302.886)" fill="#2f2962"/>
              <path id="Path_70" data-name="Path 70" d="M-729.08-290.348c-.619,11.18,5.606,12.144,7.49,12.567,2.138.481,10.584.622,12.355-10.434s-3.231-14.878-8.222-15.414S-728.461-301.528-729.08-290.348Z" transform="translate(731.388 304.707)" fill="#f5bfa9"/>
              <g id="Group_28" data-name="Group 28" transform="translate(4.6 11.069)">
                <g id="Group_25" data-name="Group 25" transform="translate(6.757 3.845)">
                  <path id="Path_71" data-name="Path 71" d="M-705.671-266.353c.01-.028.053.045.048.076-.141.749-.175,1.632.467,1.987.02.011.012.049-.013.041C-705.982-264.494-705.924-265.665-705.671-266.353Z" transform="translate(705.838 267.037)" fill="#2f2962"/>
                  <path id="Path_72" data-name="Path 72" d="M-704.8-268.094c1.226.1.944,2.541-.191,2.452C-706.1-265.729-705.823-268.174-704.8-268.094Z" transform="translate(705.757 268.096)" fill="#2f2962"/>
                </g>
                <g id="Group_26" data-name="Group 26" transform="translate(0 3.206)">
                  <path id="Path_73" data-name="Path 73" d="M-720.221-267.67c-.005-.029-.06.035-.06.066.012.763-.1,1.638-.8,1.88-.021.008-.02.046.006.043C-720.227-265.785-720.087-266.95-720.221-267.67Z" transform="translate(721.891 268.48)" fill="#2f2962"/>
                  <path id="Path_74" data-name="Path 74" d="M-722.139-269.73c-1.225-.112-1.359,2.345-.224,2.449C-721.246-267.178-721.112-269.636-722.139-269.73Z" transform="translate(723.14 269.734)" fill="#2f2962"/>
                </g>
                <path id="Path_75" data-name="Path 75" d="M-711.977-252.432c-.179.182-.355.432-.631.462a2.013,2.013,0,0,1-.824-.174.027.027,0,0,0-.032.04,1.026,1.026,0,0,0,.976.392.812.812,0,0,0,.585-.688C-711.892-252.444-711.951-252.459-711.977-252.432Z" transform="translate(717.246 262.402)" fill="#bf847c"/>
                <g id="Group_27" data-name="Group 27" transform="translate(1.679 0.068)">
                  <path id="Path_76" data-name="Path 76" d="M-717.557-270.357s-.2,1.133-.216,1.669c0,.05.127.078.309.1.009,0,.013.007.021,0a2.553,2.553,0,0,0,2.511-.867c.039-.051-.027-.109-.077-.077a3.848,3.848,0,0,1-2.353.587c-.033-.15.4-1.928.317-1.938a4.687,4.687,0,0,0-1.229.233c.342-2.371,1.061-4.667,1.366-7.033a.073.073,0,0,0-.139-.04,38.785,38.785,0,0,0-1.794,7.513C-718.894-269.909-717.775-270.273-717.557-270.357Z" transform="translate(718.841 277.768)" fill="#bf847c"/>
                </g>
                <path id="Path_77" data-name="Path 77" d="M-722.226-276.757a7.292,7.292,0,0,0,.762-.13,1.25,1.25,0,0,0,.752-.281.4.4,0,0,0,.018-.486.987.987,0,0,0-.964-.268,1.45,1.45,0,0,0-.93.478A.425.425,0,0,0-722.226-276.757Z" transform="translate(722.865 277.942)" fill="#2f2962"/>
                <path id="Path_78" data-name="Path 78" d="M-702.991-275.093a7.368,7.368,0,0,1-.729-.257,1.251,1.251,0,0,1-.694-.4.4.4,0,0,1,.064-.482.987.987,0,0,1,1-.1,1.452,1.452,0,0,1,.836.627A.425.425,0,0,1-702.991-275.093Z" transform="translate(711.761 277.016)" fill="#2f2962"/>
              </g>
              <g id="Group_29" data-name="Group 29" transform="translate(6.397)">
                <path id="Path_79" data-name="Path 79" d="M-703.554-289.135c-1.854.1-2.874-4.911-2.874-4.911s-12.373-2.151-12.047-10.063c0,0,7.262-5.234,13.878.52S-701.861-289.23-703.554-289.135Z" transform="translate(718.504 306.287)" fill="#2f2962"/>
                <path id="Path_80" data-name="Path 80" d="M-705.912-290.562a15.7,15.7,0,0,1-8.392-2.559c-2.59-1.873-3.659-4.439-4.144-7.488-.005-.031-.047-.019-.051.007-.344,2.825,1.577,5.765,3.7,7.449a13.613,13.613,0,0,0,8.886,2.719A.064.064,0,0,0-705.912-290.562Z" transform="translate(718.539 302.838)" fill="#2f2962"/>
              </g>
              <g id="Group_30" data-name="Group 30" transform="translate(19.746 14.844)">
                <path id="Path_81" data-name="Path 81" d="M-679.83-263.979a.346.346,0,0,1-.018.047A4.8,4.8,0,0,1-681.7-261.5c-.033.018-.062.029-.095.043a1.89,1.89,0,0,1-2.566-.936l.523-2.991,0-.018s.062-.094.178-.25c.069-.1.142-.207.218-.3.185-.239.425-.541.7-.838,0-.007.007-.007.011-.011a6.143,6.143,0,0,1,1.292-1.122,1.567,1.567,0,0,1,1.546-.221C-678.93-267.666-679.13-265.677-679.83-263.979Z" transform="translate(684.356 268.275)" fill="#f5bfa9"/>
                <path id="Path_82" data-name="Path 82" d="M-678.806-264.234a.026.026,0,0,1,.011.049,4.787,4.787,0,0,0-2.379,3.07,1.046,1.046,0,0,1,1.555-.335c.034.023,0,.078-.033.071a1.165,1.165,0,0,0-1.269.446,5.62,5.62,0,0,0-.581,1.056c-.057.118-.27.062-.23-.073,0-.01.007-.021.009-.03C-681.807-261.643-680.587-264.011-678.806-264.234Z" transform="translate(682.76 265.813)" fill="#bf847c"/>
              </g>
              <path id="Path_83" data-name="Path 83" d="M-690.844-274.938s2.056,11.385-2.069,15.98c0,0,4.451-2.5,4.528-11.4Z" transform="translate(709.317 287.18)" fill="#2f2962"/>
              <g id="Group_33" data-name="Group 33" transform="translate(2.264 15.156)">
                <path id="Path_84" data-name="Path 84" d="M-684.54-258.593a10.239,10.239,0,0,1-2.261,4.2,11.5,11.5,0,0,1-5.458,3.2c-.2.066-.258-.272-.051-.337a10.823,10.823,0,0,0,5.447-3.894c.011,0,.011,0,.007,0,.08-.051.156-.109.232-.167a4.8,4.8,0,0,0,1.847-2.428.355.355,0,0,0,.018-.047C-684.678-258.248-684.605-258.422-684.54-258.593Z" transform="translate(706.765 262.062)" fill="#fff"/>
                <path id="Path_85" data-name="Path 85" d="M-683.112-267.446a6.5,6.5,0,0,0-1.4,1.073s-.008,0-.012.01a6.256,6.256,0,0,0-.757.8c-.082.094-.161.194-.235.292-.125.149-.192.239-.192.239l0,.018c-.565.76-1.043,1.52-1.259,1.746-.067.073-.18-.024-.137-.1.615-1.058,1.772-3.856,3.377-4.089A1.731,1.731,0,0,1-683.112-267.446Z" transform="translate(703.519 267.477)" fill="#fff"/>
                <g id="Group_31" data-name="Group 31" transform="translate(0 2.215)">
                  <path id="Path_86" data-name="Path 86" d="M-711.79-261.184c.248-.551-3.729,1.36-7.875.506-.849-.175-3.214-1.128-4.529-1.128s-2.858,1.067-4.677,1.263c-.622.067-.084,5.452,1.505,7.807a8.053,8.053,0,0,0,4.111,2.5c3.2.329,8.672-1.953,9.5-3.018C-713.081-254.109-714.146-255.961-711.79-261.184Z" transform="translate(729.123 261.806)" fill="#fff"/>
                </g>
                <g id="Group_32" data-name="Group 32" transform="translate(0.504 3.979)">
                  <path id="Path_87" data-name="Path 87" d="M-727.765-256.079a18.725,18.725,0,0,1,3.592-1.149,5.688,5.688,0,0,1,3.042.54,13.1,13.1,0,0,0,8.169.077c.033-.009.044.046.014.059a10.816,10.816,0,0,1-6.836.568c-1.243-.288-2.485-.958-3.771-.877a40,40,0,0,0-4.16,1C-727.833-255.843-727.881-256.03-727.765-256.079Z" transform="translate(727.832 257.287)" fill="#bec1df"/>
                  <path id="Path_88" data-name="Path 88" d="M-722.54-239.664a22.675,22.675,0,0,0,2.607,1.316,6.587,6.587,0,0,0,3.4-.253,61.013,61.013,0,0,0,5.883-1.969c.016-.005.022.023.007.03a25.973,25.973,0,0,1-6.772,2.374,5.346,5.346,0,0,1-2.425.1,11.108,11.108,0,0,1-2.716-1.545C-722.584-239.624-722.567-239.677-722.54-239.664Z" transform="translate(724.626 247.099)" fill="#bec1df"/>
                  <path id="Path_89" data-name="Path 89" d="M-725.977-250.2a13.877,13.877,0,0,1,6-.176,23.971,23.971,0,0,0,7.048-.132c.023,0,.033.036.01.041a20.469,20.469,0,0,1-6.286.327c-1.018-.105-2.028-.3-3.048-.368a11.883,11.883,0,0,0-3.7.437C-726.019-250.054-726.05-250.18-725.977-250.2Z" transform="translate(726.727 253.222)" fill="#bec1df"/>
                  <path id="Path_90" data-name="Path 90" d="M-724.828-244.869a10.059,10.059,0,0,0,5.963,1.307,27,27,0,0,0,6.175-1.69c.027-.009.037.037.011.048-4.056,1.712-8.167,2.869-12.2.458C-724.961-244.794-724.908-244.912-724.828-244.869Z" transform="translate(726.057 249.952)" fill="#bec1df"/>
                </g>
              </g>
            </g>
          </g>
        </g>
      </g>
      <g id="Group_67" data-name="Group 67" transform="translate(-717.496 -315.89)">
        <g id="Group_45" data-name="Group 45" transform="translate(0 32.269)">
          <g id="Group_38" data-name="Group 38" transform="translate(8.653 52.147)">
            <path id="Path_91" data-name="Path 91" d="M-618.155-99.719s2.893,35.613,3.307,36.108h12.6V-99.719Z" transform="translate(618.155 99.719)" fill="#434d91"/>
            <path id="Path_92" data-name="Path 92" d="M-568.84-99.719h-22.617s5.48,14.909,6.074,15.9,3.567,20.208,3.567,20.208h12.977s.025-16.2,0-17.237S-567.527-95.93-568.84-99.719Z" transform="translate(601.883 99.719)" fill="#434d91"/>
          </g>
          <path id="Path_93" data-name="Path 93" d="M-600.589-233.254a11.527,11.527,0,0,0-6.51,2.724c-1.366,1.068-8.257,7.572-8.826,9.516s-1.309,42.429-.556,43.666,8.731,4.1,12.252,4.313,18.808-2.634,20.015-3.752,4.068-40.134,3.436-42.527-10.389-10.1-12.335-12.353C-593.977-232.668-599.341-233.305-600.589-233.254Z" transform="translate(625.983 233.256)" fill="#bec1df"/>
          <g id="Group_39" data-name="Group 39" transform="translate(16.71 6.128)">
            <path id="Path_94" data-name="Path 94" d="M-590.116-215.219a11.656,11.656,0,0,0,.886,3.4,5.217,5.217,0,0,0,2.737.285,13.317,13.317,0,0,0,1.544-3.252,5.687,5.687,0,0,0-2.52-2.777C-588.23-217.685-590.1-215.551-590.116-215.219Z" transform="translate(593.009 217.565)" fill="#2f2962"/>
            <path id="Path_95" data-name="Path 95" d="M-593.744-203.024s-3.564,26.134-3.771,27.907,3.82,12.338,4.5,12.578,4.476-10.547,4.712-11.724-2.457-27.633-2.673-28.57A5.258,5.258,0,0,0-593.744-203.024Z" transform="translate(597.523 208.772)" fill="#2f2962"/>
          </g>
          <g id="Group_40" data-name="Group 40" transform="translate(5.928 3.105)">
            <path id="Path_96" data-name="Path 96" d="M-615.081-147.755c-.368,1.068-9.854-1.78-10.044-3.078s3.17-31.362,3.175-33.72-.362-28.4.755-31.406c.564-1.538,4.025-5.021,6.017-6.949.847-.818,1.434-1.354,1.434-1.354-.326,1.266-1.558,18.287-1.246,29.87.1,3.7.164,9.71.194,16.2,0,.059,0,.113,0,.161C-614.736-164.3-614.829-148.472-615.081-147.755Z" transform="translate(625.133 224.67)" fill="#fff"/>
            <path id="Path_97" data-name="Path 97" d="M-611.179-207.519c-.077-1.2,4.052-6.061,4.052-6.061s-3.667.576-3.672-.222c0-.7,3.337-8.021,4.126-9.742.847-.818,2.036-1.762,2.036-1.762a226.9,226.9,0,0,0-1.849,30.278c.1,3.7.164,9.71.194,16.2C-606.455-182.522-611.1-206.341-611.179-207.519Z" transform="translate(616.629 225.306)" fill="#fff"/>
            <path id="Path_98" data-name="Path 98" d="M-611.635-204.23c1.2-2,4.223-5.82,4.207-5.8-.01,0-3.5.137-3.755-.146-.178-.2,2.954-7.2,3.886-9.092a.039.039,0,0,0-.066-.041c-1.71,2.51-4.679,9.259-4.071,9.458a17.262,17.262,0,0,0,3.318.19,36.217,36.217,0,0,0-3.935,5.5c-.075.234,1.434,9.2,2.231,13.49.86,4.631,1.571,9.919,2.651,14.5.021.088.144.053.134-.033C-607.584-180.793-610.721-199.139-611.635-204.23Z" transform="translate(617.161 221.664)" fill="#2f2962"/>
          </g>
          <g id="Group_42" data-name="Group 42" transform="translate(27.717 1.158)">
            <path id="Path_99" data-name="Path 99" d="M-550.287-153.748c-7.542,5.868-17.639,4.371-18,3.557-.209-.483-.794-15.429-.988-30.16l-.006-.2c-.127-10.023-.082-19.923.384-25.069a123.267,123.267,0,0,1,4.605-23.587,4.351,4.351,0,0,1,.977.684l.005.006c2.885,2.318,10.985,9.78,10.9,11.169-.105,1.649-.5,23.318.141,32.747S-549.231-154.572-550.287-153.748Z" transform="translate(569.337 229.63)" fill="#fff"/>
            <path id="Path_100" data-name="Path 100" d="M-548.111-83.315c-.038-.132-.353-.154-.414-.143-3.509.628-6.967,1.387-10.531,1.677-.035,0-.038.055,0,.056a43.787,43.787,0,0,0,10.612-1.407.118.118,0,0,0,.013-.005q.329,1.173.56,2.366a51.26,51.26,0,0,1-9.751,1.409.024.024,0,0,0,0,.047,25.448,25.448,0,0,0,9.8-1.2,25.72,25.72,0,0,1,.446,4.784c0,.876.183,2.91-.433,3.622-.747.863-2.5,1.267-3.566,1.472a10.659,10.659,0,0,1-4.1-.011,2.306,2.306,0,0,1-1.933-1.19,79.128,79.128,0,0,1-1.487-9.407c-.006-.07-.112-.077-.112,0,.04,2.9.48,7.5,1.223,9.5.73,1.969,4.129,1.78,5.8,1.561a10.378,10.378,0,0,0,4.3-1.248c.748-.519.708-1.068.747-1.991A30.284,30.284,0,0,0-548.111-83.315Z" transform="translate(563.088 140.8)" fill="#2f2962"/>
            <path id="Path_101" data-name="Path 101" d="M-553.8-164.451c-1.323-.114-6.809.2-8.22.351-.081.009-.063.137.014.14,1.407.045,7.574-.289,7.8-.19.193.085.139,1.231.007,1.3-.323.159-6.395.211-7.85.244-.248.005-.261.392-.012.386q4.092-.1,8.179-.31a.194.194,0,0,0,.2-.185A8.16,8.16,0,0,0-553.8-164.451Z" transform="translate(565.01 190.177)" fill="#2f2962"/>
            <g id="Group_41" data-name="Group 41">
              <path id="Path_102" data-name="Path 102" d="M-565.236-217.807c-.062.145,3.876,3.956,4.092,4.511s-5.3,15.412-6.461,19.908a86.493,86.493,0,0,0-1.665,12.374l-.006-.2c-.127-10.023-.082-19.923.384-25.069a153.007,153.007,0,0,1,4.258-24.012c.083,0,.785.677,1.324,1.109l.005.006c.077.309,2.708,10.066,2.742,10.384S-565.18-217.953-565.236-217.807Z" transform="translate(569.337 230.292)" fill="#fff"/>
              <path id="Path_103" data-name="Path 103" d="M-563.105-226.769c-.023-.094-.089-.07-.071.025a87.224,87.224,0,0,0,2.468,10.059c-1.565.264-4.531.871-4.586.939a11.263,11.263,0,0,0,1.856,2.366,23.322,23.322,0,0,0,2.279,2.253,199.916,199.916,0,0,0-7.214,22.456,71.551,71.551,0,0,0-.846,7.926c0,.034.048.034.052,0,.343-2.791.647-5.59,1.233-8.342.527-2.478,5.4-17.054,7.125-21.967.046-.131-3.609-3.94-4.267-4.587a37.94,37.94,0,0,0,4.711-.877C-561.333-219.915-562.251-223.341-563.105-226.769Z" transform="translate(569.265 228.181)" fill="#2f2962"/>
            </g>
          </g>
          <g id="Group_43" data-name="Group 43" transform="translate(0 10.276)">
            <path id="Path_104" data-name="Path 104" d="M-602.282-176.395c-.025.676-.138,1.146-.25,1.2-.347.188-1.82.9-3.814,1.7-.357.144-.729.292-1.119.44-1.09.413-5.057,2.447-9.511,4.587-5.95,2.86-12.758,5.915-14.728,5.582-3.432-.586-8.244-4.718-8.6-7.088s6.854-30.545,7.769-32.46a16.5,16.5,0,0,1,2.94-4.512l-1.493,31a2.068,2.068,0,0,1,.318-.134c1.112-.4,4.8-1.414,9.026-2.521,7.114-1.863,15.77-3.983,16.332-3.806a4.538,4.538,0,0,1,.576.232h.005C-602.632-181.07-602.2-178.092-602.282-176.395Z" transform="translate(640.314 206.942)" fill="#fff"/>
            <path id="Path_105" data-name="Path 105" d="M-618.866-161.331a.009.009,0,0,0,0-.017" transform="translate(627.242 179.153)" fill="none" stroke="#2f2962" stroke-linecap="round" stroke-linejoin="round" stroke-width="0"/>
            <path id="Path_106" data-name="Path 106" d="M-591.479-129.279c-.357.144-.729.292-1.119.44-1.09.413-5.057,2.447-9.511,4.587-1.006-.591-2.012-1.188-3.017-1.773-2.434-1.414-4.93-2.754-7.306-4.249a6.167,6.167,0,0,1-.549-.391c-.149.007-.3.013-.419.021-.777.027-2.409-.033-2.507-1a.3.3,0,0,1-.015-.067.138.138,0,0,1,.012-.049.731.731,0,0,1,.009-.1c1.112-.4,4.8-1.414,9.026-2.521a22.107,22.107,0,0,1,11.083,2.309A21.467,21.467,0,0,1-591.479-129.279Z" transform="translate(625.447 162.732)" fill="#bec1df"/>
            <path id="Path_107" data-name="Path 107" d="M-593.248-154.114c-.02.3-.057.615-.105.943.025.072-.088.185-.172.232-4.142,2.4-16.727,8.036-19.838,9.413-1.829.815-8.068,3.8-9.993,2.867-.038-.023-.048-.062,0-.055.017,0,.033.006.05.007,1.758.272,8.476-2.516,15.074-5.539,1.1-.5,2.209-1.013,3.286-1.514a.948.948,0,0,1,.106-.052c2.254-1.061,4.387-2.092,6.173-2.964.011-.005.017-.005.022-.01.363-.176.709-.348,1.039-.508,2.406-1.177,3.964-1.967,3.964-1.967.105-1.5.08-5.488-3.068-6.732-4.758,1.267-10.128,2.406-14.924,3.65-.166.039-.333.084-.5.128q-3.768.994-7.542,2.015a9.092,9.092,0,0,0-2.215.853,5.962,5.962,0,0,0-1.215.894c-.883.832-1.728,1.692-2.648,2.485a.054.054,0,0,1-.075-.079,17.812,17.812,0,0,1,3.372-3.5c-.136-3.773-.211-7.56-.3-11.342a2.611,2.611,0,0,1-.347-.913,8.843,8.843,0,0,1-.232-1.255c-.009-.077.1-.107.116-.03.093.388.214.771.346,1.155.031.083.066.167.1.256-.041-1.575-.077-3.149-.129-4.724,0-.011.022-.016.027,0a94.827,94.827,0,0,1,.783,13.117c.009,1.172.007,2.344.006,3.51a5.731,5.731,0,0,1,1.149-.533c2.511-.806,5.114-1.389,7.659-2.056,2.978-.786,6.163-1.528,9.337-2.242.066-.014.139-.034.216-.049,2-.447,3.988-.894,5.91-1.332.376-.082.748-.171,1.119-.253a3.068,3.068,0,0,1,.837.339C-594.788-159.321-592.985-157.765-593.248-154.114Z" transform="translate(631.495 184.679)" fill="#2f2962"/>
          </g>
          <path id="Path_108" data-name="Path 108" d="M-608.579-138.713a10.39,10.39,0,0,0-2.326,2.545,8.452,8.452,0,0,0-1.184,2.275,3.72,3.72,0,0,1-.977-.09,1.843,1.843,0,0,1-1.451-1.16l-1.87.533c-.788-.32.2-1.518.2-1.518-.024-.485.858-1.081.858-1.081.108-.492,1.243-.937,1.243-.937a2.775,2.775,0,0,1,1.661-.715A16.8,16.8,0,0,1-608.579-138.713Z" transform="translate(625.917 175.764)" fill="#fadad4"/>
          <path id="Path_109" data-name="Path 109" d="M-568.105-172.425c.005,1.5-4.839,8.813-8.051,8.4-5.273-.668-27.588-11.586-28.659-11.832-.224-.056-.26-.31-.167-.692a8.453,8.453,0,0,1,1.184-2.275,10.39,10.39,0,0,1,2.326-2.545,2.347,2.347,0,0,1,.642-.327c1.427-.437,14.721,1.889,20.279,2.957,1.444.28,2.363.472,2.422.506a45.45,45.45,0,0,0,.272-4.91c.3-8.634.661-25.772.661-25.772,1.666,1.705,5.039,5.007,5.66,6.17S-568.115-173.928-568.105-172.425Z" transform="translate(618.808 218.422)" fill="#fff"/>
          <g id="Group_44" data-name="Group 44" transform="translate(13.664 25.283)">
            <path id="Path_110" data-name="Path 110" d="M-568.885-151.719a16.893,16.893,0,0,0-3.223-1.842,8.3,8.3,0,0,1,2.561.261c.119.012.134-.159.033-.2a6.407,6.407,0,0,0-2.112-.4,1.361,1.361,0,0,0-.652.134,81.456,81.456,0,0,0-.184-14.7c-.009-.085-.148-.068-.148.016q0,1.945.005,3.889c-.132-.544-.291-1.081-.427-1.595a.026.026,0,0,0-.05.012c.232,1.166.232,2.394.485,3.551.014,2.944.027,5.888.005,8.833-2.8-1.02-18.967-3.826-22.691-3.4a1.468,1.468,0,0,0-.67.313c-.088.066-.077.158-.027.135a1.968,1.968,0,0,1,.838-.28c3.96-.022,19.795,2.693,22.589,3.72a.142.142,0,0,0,.1.038,26.206,26.206,0,0,1,3.555,1.626C-568.737-151.512-568.734-151.618-568.885-151.719Z" transform="translate(599.653 168.513)" fill="#2f2962"/>
            <path id="Path_111" data-name="Path 111" d="M-573.654-114.682a5.169,5.169,0,0,1-2.079.9c-1.106.185-4.116-.993-5.952-1.675-2.812-1.044-5.531-2.315-8.242-3.593-2.451-1.156-4.908-2.3-7.391-3.385q-1.946-.851-3.908-1.665c-.8-.332-3.349-1.232-3.817-1.555-.143-.1-.05-.408-.061-.567,0-.056-.09-.081-.105-.017a3.074,3.074,0,0,0-.115.7.114.114,0,0,0,.078.109c6.1,2.548,12.058,5.36,18.061,8.121a65.034,65.034,0,0,0,7.981,3.17,9.353,9.353,0,0,0,3.541.7,3.02,3.02,0,0,0,2.109-1.175C-573.506-114.671-573.589-114.728-573.654-114.682Z" transform="translate(605.324 142.77)" fill="#2f2962"/>
          </g>
          <path id="Path_112" data-name="Path 112" d="M-539.34-139.064s.248.563.064.816a3.924,3.924,0,0,1-.817.636s-3.294-.6-3.923-.749c-.059-.035-.978-.227-2.422-.507a5.253,5.253,0,0,0-2.624-4.628c.7.01,3.574.068,5.319.224a6.632,6.632,0,0,1,1.205.179,10.476,10.476,0,0,1,3.5,3.471A.891.891,0,0,1-539.34-139.064Z" transform="translate(584.697 178.548)" fill="#fadad4"/>
        </g>
        <g id="Group_51" data-name="Group 51" transform="translate(14.048 30.21)">
          <path id="Path_113" data-name="Path 113" d="M-583.275-233.875c-.589-3.429-6.183-3.566-8.8-3.4-3.334.212-6.086,1.083-6.905,4.545a37.123,37.123,0,0,0-.488,10.668.508.508,0,0,1-1.013.079c-.251-4.026-1.113-11.577,2.32-14.494,3.4-2.887,14.9-3.287,15.9,2.523.11.644-.9.719-1.013.079Z" transform="translate(602.16 238.527)" fill="#2f2962"/>
          <g id="Group_46" data-name="Group 46" transform="translate(0 16.085)">
            <path id="Path_114" data-name="Path 114" d="M-604.332-194.822a2.334,2.334,0,0,0,2.508,2.145,2.333,2.333,0,0,0,2.145-2.508,2.334,2.334,0,0,0-2.508-2.145A2.334,2.334,0,0,0-604.332-194.822Z" transform="translate(604.339 197.337)" fill="#768ff6"/>
            <path id="Path_115" data-name="Path 115" d="M-601.956-193.445a1.4,1.4,0,0,0,1.51,1.291,1.4,1.4,0,0,0,1.291-1.51,1.4,1.4,0,0,0-1.51-1.291A1.4,1.4,0,0,0-601.956-193.445Z" transform="translate(602.889 195.888)" fill="#e4eff8"/>
          </g>
          <g id="Group_50" data-name="Group 50" transform="translate(17.76 3.909)">
            <g id="Group_49" data-name="Group 49" transform="translate(0.239 10.541)">
              <g id="Group_47" data-name="Group 47" transform="translate(0 1.603)">
                <path id="Path_116" data-name="Path 116" d="M-558.222-197.42c-.193,10.083.754,12.3,1.807,13.2a6.483,6.483,0,0,0,2.66,1.255l.135-.7-.067.348.068-.348a5.851,5.851,0,0,1-2.336-1.1c-.761-.649-1.75-2.667-1.559-12.65Z" transform="translate(558.248 197.42)" fill="#bec1df"/>
                <rect id="Rectangle_14" data-name="Rectangle 14" width="1.509" height="2.452" rx="0.754" transform="translate(3.304 14.537) rotate(-74.706)" fill="#768ff6"/>
              </g>
              <g id="Group_48" data-name="Group 48" transform="translate(6.268)">
                <path id="Path_117" data-name="Path 117" d="M-542.2-201.189c3.616,6.685,5.02,10.484,4.419,11.955a5.815,5.815,0,0,1-1.571,2.047l.439.556a6.482,6.482,0,0,0,1.788-2.335c.715-1.752-.574-5.391-4.452-12.56Z" transform="translate(542.196 201.526)" fill="#bec1df"/>
                <path id="Rectangle_15" data-name="Rectangle 15" d="M.754,0h0a.754.754,0,0,1,.754.754V1.7a.754.754,0,0,1-.754.754h0A.754.754,0,0,1,0,1.7V.754A.754.754,0,0,1,.754,0Z" transform="translate(2.574 16.081) rotate(-132.607)" fill="#768ff6"/>
              </g>
            </g>
            <path id="Path_118" data-name="Path 118" d="M-551.565-218.334a40.736,40.736,0,0,0-2.363-4.371,4.249,4.249,0,0,0-1.79-1.356,7.132,7.132,0,0,1-.541-2.2,5.424,5.424,0,0,0-.577-2.142.7.7,0,0,0-.956.181,5.419,5.419,0,0,0,.24,2.206,7.06,7.06,0,0,1,.293,2.243,4.634,4.634,0,0,0-1.09,1.917,33.631,33.631,0,0,0-.508,5.062c.026,1.07.39,1.114.705,1.143.446.04.64-.3.69-1.506.08-1.905,0-5.059,1.24-5.351v0c1.261-.174,2.53,2.879,3.355,4.553.517,1.048.776,1.1,1.178.9C-551.407-217.2-551.131-217.4-551.565-218.334Z" transform="translate(558.859 228.518)" fill="#768ff6"/>
          </g>
        </g>
        <g id="Group_66" data-name="Group 66" transform="translate(10.898)">
          <g id="Group_52" data-name="Group 52" transform="translate(5.629 28.571)">
            <path id="Path_119" data-name="Path 119" d="M-586.043-242.182c.946.4,4.191,4.711,4.068,5.332s.285,8.463-6.883,11.514l-3.517-6.616-3.507,5.425s-2.025-4.324-1.96-5.4.908-6.451,5.083-9.125C-589.622-243.065-588.013-243.018-586.043-242.182Z" transform="translate(597.901 242.725)" fill="#bec1df"/>
            <path id="Path_120" data-name="Path 120" d="M-582.171-227.927c-.368,4.284-2.227,9.872-6.688,11.346-1.23-2.106-2.477-4.166-3.525-6.369a.112.112,0,0,0-.181-.027c-.032.009-2.509,3.591-3.461,5.344a24.215,24.215,0,0,1-1.321-3.781,7.421,7.421,0,0,1,.24-4.857c.014-.043-.055-.074-.075-.032a6.283,6.283,0,0,0-.643,4.352A21.35,21.35,0,0,0-596.2-217.4a.1.1,0,0,0,.108.055.078.078,0,0,0,.093-.022c1.229-1.682,2.234-3.519,3.47-5.206,1.058,2.194,2.252,4.3,3.447,6.253.057.094.262.044.281.038,4.64-1.466,6.8-7.143,6.682-11.648A.028.028,0,0,0-582.171-227.927Z" transform="translate(597.991 233.723)" fill="#2f2962"/>
          </g>
          <g id="Group_65" data-name="Group 65">
            <g id="Group_53" data-name="Group 53" transform="translate(7.242 20.935)">
              <path id="Path_121" data-name="Path 121" d="M-593.862-259.1l.527,10.142v.016l.074,1.424a4.494,4.494,0,0,0,3.6,3.478c3.069.548,7.714-3.556,8.078-4.321a64.773,64.773,0,0,0,.45-7.485c.1-3.3.164-6.438.164-6.438l-1.439.357Z" transform="translate(593.862 262.28)" fill="#fadad4"/>
              <path id="Path_122" data-name="Path 122" d="M-593.862-259.1l.527,10.142v.016a19.84,19.84,0,0,0,9.289-4.049,19.09,19.09,0,0,0,2.91-2.855c.1-3.3.164-6.438.164-6.438l-1.439.357Z" transform="translate(593.862 262.28)" fill="#dea89e"/>
            </g>
            <g id="Group_64" data-name="Group 64">
              <g id="Group_54" data-name="Group 54" transform="translate(1.246 1.309)">
                <path id="Path_123" data-name="Path 123" d="M-588.421-307.083c2.122,4.786.25,16.768-3.391,20.837-2.493,2.786-7.921,3.652-11.964,2.011a7.753,7.753,0,0,1-4.25-3.848c-2.753-5.88-.254-19.983,2.693-22.2C-600.129-314.2-591.017-312.935-588.421-307.083Z" transform="translate(609.215 312.537)" fill="#fadad4"/>
              </g>
              <g id="Group_59" data-name="Group 59" transform="translate(4.533 13.49)">
                <g id="Group_55" data-name="Group 55" transform="translate(7.903 3.341)">
                  <path id="Path_124" data-name="Path 124" d="M-580.459-270.935c.008-.028.056.04.052.071-.084.746-.054,1.615.6,1.918.02.009.015.047-.009.041C-580.63-269.088-580.658-270.242-580.459-270.935Z" transform="translate(580.562 271.663)" fill="#2f2962"/>
                  <path id="Path_125" data-name="Path 125" d="M-579.676-272.789c1.211.005,1.111,2.427-.011,2.422C-580.791-270.372-580.691-272.793-579.676-272.789Z" transform="translate(580.51 272.789)" fill="#2f2962"/>
                </g>
                <g id="Group_56" data-name="Group 56" transform="translate(0.486 2.825)">
                  <path id="Path_126" data-name="Path 126" d="M-596.726-272.031c0-.029-.06.033-.06.064-.007.751-.142,1.61-.83,1.831-.021.007-.021.044,0,.042C-596.779-270.176-596.612-271.318-596.726-272.031Z" transform="translate(598.382 272.848)" fill="#2f2962"/>
                  <path id="Path_127" data-name="Path 127" d="M-598.535-274.105c-1.2-.141-1.4,2.275-.282,2.405C-597.72-271.571-597.527-273.987-598.535-274.105Z" transform="translate(599.554 274.111)" fill="#2f2962"/>
                </g>
                <path id="Path_128" data-name="Path 128" d="M-585.29-253.62c-.187.168-.376.4-.649.414a1.979,1.979,0,0,1-.8-.222.026.026,0,0,0-.034.037,1.01,1.01,0,0,0,.935.446.8.8,0,0,0,.617-.639C-585.206-253.626-585.263-253.645-585.29-253.62Z" transform="translate(592.252 264.454)" fill="#dea89e"/>
                <path id="Path_129" data-name="Path 129" d="M-578.761-278.262a9.392,9.392,0,0,1-.924-.369,1.61,1.61,0,0,1-.871-.556.513.513,0,0,1,.108-.616,1.272,1.272,0,0,1,1.285-.078,1.868,1.868,0,0,1,1.042.851A.547.547,0,0,1-578.761-278.262Z" transform="translate(588.498 280.535)" fill="#2f2962"/>
                <path id="Path_130" data-name="Path 130" d="M-600.18-279.772a9.48,9.48,0,0,0,.972-.21,1.611,1.611,0,0,0,.951-.4.513.513,0,0,0,0-.626,1.271,1.271,0,0,0-1.254-.291,1.866,1.866,0,0,0-1.168.666A.547.547,0,0,0-600.18-279.772Z" transform="translate(600.799 281.345)" fill="#2f2962"/>
                <path id="Path_131" data-name="Path 131" d="M-589.727-259.191s.608,1.546,1.8,1.271c.9-.207.467-2.028.467-2.028A3.908,3.908,0,0,1-589.727-259.191Z" transform="translate(594.051 268.304)" fill="#fff"/>
                <g id="Group_58" data-name="Group 58" transform="translate(2.34 0.153)">
                  <g id="Group_57" data-name="Group 57">
                    <path id="Path_132" data-name="Path 132" d="M-590.487-272.68a2.556,2.556,0,0,1-1.751,1.066,3.216,3.216,0,0,1-.92,0,.919.919,0,0,1-.175-.027c-.055-.009-.1-.018-.163-.032a.187.187,0,0,1-.144-.174v-.005a.362.362,0,0,1,.01-.077v-.005l0-.066c.008-.578.1-1.454.1-1.454-.215.1-1.311.537-1.282.236A38.5,38.5,0,0,1-593.5-280.9a.07.07,0,0,1,.136.025c-.147,2.4-.716,4.766-.9,7.179a4.481,4.481,0,0,1,1.221-.316c.081.027-.208,1.69-.191,1.95a.1.1,0,0,0,0,.028,3.545,3.545,0,0,0,2.677-.712C-590.5-272.791-590.439-272.738-590.487-272.68Z" transform="translate(594.807 280.953)" fill="#dea89e"/>
                  </g>
                </g>
              </g>
              <path id="Path_133" data-name="Path 133" d="M-606.845-299.617c-2.553,4.059-2.927,10.616-3.453,8.757-1.733-6.125,1.335-9.669,1.335-9.669S-606.538-300.1-606.845-299.617Z" transform="translate(611.445 306.527)" fill="#2f2962"/>
              <path id="Path_134" data-name="Path 134" d="M-591.145-296.319s-4.635-.921-3.279-10.776a16.26,16.26,0,0,1-8.522,1.116c-5.059-.631-7.8-2.78-9.4-6.26-.523-1.136,2.221.464,3.426-.052,2.147-.921,4.245-3.72,10.024-3.594s7.311,4.018,7.311,4.018a7.725,7.725,0,0,1,4.349,3.658C-585.989-305.508-588.163-296.326-591.145-296.319Z" transform="translate(612.406 315.89)" fill="#2f2962"/>
              <g id="Group_60" data-name="Group 60" transform="translate(19.206 15.956)">
                <path id="Path_135" data-name="Path 135" d="M-562.8-271.753s2.361-3.982,4.149-3.168.21,6.448-1.749,7.35a2.055,2.055,0,0,1-2.829-.9Z" transform="translate(563.224 275.03)" fill="#fadad4"/>
                <path id="Path_136" data-name="Path 136" d="M-557.408-270.643c.032-.005.042.039.015.053a5.2,5.2,0,0,0-2.435,3.443,1.135,1.135,0,0,1,1.67-.437c.039.023.008.084-.032.078a1.264,1.264,0,0,0-1.355.544,6.109,6.109,0,0,0-.58,1.173c-.057.131-.29.081-.253-.068l.009-.034C-560.54-267.689-559.329-270.316-557.408-270.643Z" transform="translate(561.494 272.356)" fill="#dea89e"/>
              </g>
              <g id="Group_63" data-name="Group 63" transform="translate(1.076 15.874)">
                <path id="Path_137" data-name="Path 137" d="M-569.478-256.361a12.134,12.134,0,0,0,5.42-3.9,10.812,10.812,0,0,0,1.961-4.634,8.273,8.273,0,0,1-.78,1.908,5.868,5.868,0,0,1-1.342,1.639c.005.005.005.005-.005.005a11.421,11.421,0,0,1-5.342,4.628C-569.774-256.621-569.68-256.273-569.478-256.361Z" transform="translate(585.291 268.932)" fill="#fff"/>
                <path id="Path_138" data-name="Path 138" d="M-563.907-270.511c.364-.453,1.493-2.793,2.507-3.666l.011-.011a6.4,6.4,0,0,1,.483-.442,2.388,2.388,0,0,1,.936-.5,1.519,1.519,0,0,0-.89-.078c-1.56.3-2.611,3.411-3.183,4.592C-564.084-270.533-563.969-270.428-563.907-270.511Z" transform="translate(581.858 275.24)" fill="#fff"/>
                <g id="Group_61" data-name="Group 61" transform="translate(0 3.544)">
                  <path id="Path_139" data-name="Path 139" d="M-591.358-265.508c.262-.581-3.935,1.435-8.31.534-.9-.184-3.392-1.19-4.78-1.19s-3.016,1.126-4.935,1.333c-.656.071-.089,5.753,1.588,8.238a8.5,8.5,0,0,0,4.338,2.64c3.373.347,9.151-2.061,10.031-3.185C-592.721-258.041-593.845-260-591.358-265.508Z" transform="translate(609.65 266.164)" fill="#fff"/>
                </g>
                <g id="Group_62" data-name="Group 62" transform="translate(0.655 4.846)">
                  <path id="Path_140" data-name="Path 140" d="M-607.9-261.555a19.7,19.7,0,0,1,3.79-1.213,6,6,0,0,1,3.211.569,13.819,13.819,0,0,0,8.621.081c.034-.01.047.049.014.063a11.416,11.416,0,0,1-7.214.6c-1.312-.3-2.623-1.011-3.98-.926-1.482.093-2.924.8-4.39,1.054C-607.974-261.306-608.025-261.5-607.9-261.555Z" transform="translate(607.972 262.83)" fill="#bec1df"/>
                  <path id="Path_141" data-name="Path 141" d="M-602.388-244.232a23.843,23.843,0,0,0,2.75,1.388,6.955,6.955,0,0,0,3.584-.266,64.54,64.54,0,0,0,6.208-2.078c.018-.006.023.023.007.031a27.424,27.424,0,0,1-7.146,2.505,5.636,5.636,0,0,1-2.559.11,11.7,11.7,0,0,1-2.866-1.631C-602.435-244.191-602.417-244.246-602.388-244.232Z" transform="translate(604.589 252.078)" fill="#bec1df"/>
                  <path id="Path_142" data-name="Path 142" d="M-606.016-255.352a14.641,14.641,0,0,1,6.336-.185,25.312,25.312,0,0,0,7.437-.139c.024,0,.035.038.01.043a21.6,21.6,0,0,1-6.634.345c-1.073-.111-2.14-.314-3.217-.388a12.522,12.522,0,0,0-3.9.461C-606.06-255.2-606.093-255.33-606.016-255.352Z" transform="translate(606.807 258.54)" fill="#bec1df"/>
                  <path id="Path_143" data-name="Path 143" d="M-604.8-249.725a10.617,10.617,0,0,0,6.292,1.379,28.511,28.511,0,0,0,6.516-1.783c.029-.01.039.039.012.051-4.28,1.807-8.618,3.028-12.876.483C-604.943-249.646-604.887-249.771-604.8-249.725Z" transform="translate(606.1 255.089)" fill="#bec1df"/>
                </g>
              </g>
            </g>
          </g>
        </g>
      </g>
      <g id="Group_100" data-name="Group 100" transform="translate(-664.822 -313.626)">
        <g id="Group_80" data-name="Group 80" transform="translate(0 31.787)">
          <path id="Path_144" data-name="Path 144" d="M-424.458-214.722a46.409,46.409,0,0,1,6.175,6.778c.735.987,4.39,23.207,5.013,24.632s8.971,13.048,8.561,13.76-4.6,5.085-6.611,4.919-9.4-13.291-10.824-14.93S-424.458-214.722-424.458-214.722Z" transform="translate(456.078 220.178)" fill="#fff"/>
          <g id="Group_69" data-name="Group 69" transform="translate(8.968)">
            <path id="Path_145" data-name="Path 145" d="M-469.246-228.692c-4.824-.167-12.1,8.768-13.1,12.558s4.7,18.438,4.264,22.662-1.938,8.211-.953,9.9,11.256,4.931,15.16,4.633,7.262-5.683,8.169-6.867-.416-11.613-.2-12.278,3.672-3.334,3.123-6.91-4.874-14.746-6.069-16.343S-464.557-228.53-469.246-228.692Z" transform="translate(482.462 228.694)" fill="#bec1df"/>
            <g id="Group_68" data-name="Group 68" transform="translate(9.047 29.04)">
              <path id="Path_146" data-name="Path 146" d="M-447.562-154.321a35.462,35.462,0,0,1-5.332,1.869c-2.206.365-4.4-.6-6.325-1.561a.049.049,0,0,0-.053.084c1.723,1.137,3.6,2.2,5.736,2.091,2.088-.1,4.248-1.315,6.075-2.22C-447.321-154.128-447.407-154.374-447.562-154.321Z" transform="translate(459.295 154.329)" fill="#2f2962"/>
              <path id="Path_147" data-name="Path 147" d="M-428.233-152.52a11.977,11.977,0,0,0-5.215.921c-.081.032-.029.169.055.143a20.19,20.19,0,0,1,5.151-.789A.138.138,0,0,0-428.233-152.52Z" transform="translate(443.566 153.24)" fill="#2f2962"/>
            </g>
          </g>
          <path id="Path_148" data-name="Path 148" d="M-485.925-131.682s11.271,3.862,15.322,3.481a17.082,17.082,0,0,0,7.7-3.231s3.1,12.178,3.811,16.523,2.318,24.735,2.293,25.455-5.421,6.633-14.495,6.319-22.473-4.857-23.3-5.9,4.278-27.828,5.6-32.686S-485.925-131.682-485.925-131.682Z" transform="translate(498.882 169.566)" fill="#2f2962"/>
          <g id="Group_71" data-name="Group 71" transform="translate(2.41 2.034)">
            <path id="Path_149" data-name="Path 149" d="M-477.972-137.633c.078,1.733-10.619-.171-14.232-1.449s-6.689-3.888-7.039-4.956,6.046-28.16,6.43-30.927,3.378-12.213,3.582-13.936-4.971-20.243-5.893-21.428c-.768-.99,5.886-9.078,9.22-12.066a5.374,5.374,0,0,1,1.5-1.084c.175-.057.413.389.708,1.207,1.493,4.2,4.273,18.254,5.528,25.485.592,3.4.732,13.039.7,23.571C-477.527-157.016-478.016-138.684-477.972-137.633Z" transform="translate(499.256 223.485)" fill="#fff"/>
            <g id="Group_70" data-name="Group 70" transform="translate(6.878 48.711)">
              <path id="Path_150" data-name="Path 150" d="M-473.16-98.691c-1.141,1.949-1.907,3.926-3.533,5.567A24.43,24.43,0,0,1-481.62-89.1a.048.048,0,0,0,.035.087c2.112-.534,3.81-2.172,5.288-3.7a14.882,14.882,0,0,0,3.358-5.879A.122.122,0,0,0-473.16-98.691Z" transform="translate(481.643 98.748)" fill="#2f2962"/>
              <path id="Path_151" data-name="Path 151" d="M-468.9-91.682c-1.383,3.618-3.928,5.97-7.13,8.042-.027.017,0,.059.024.043,3.14-1.781,6.3-4.394,7.24-8.046A.07.07,0,0,0-468.9-91.682Z" transform="translate(478.229 94.471)" fill="#2f2962"/>
            </g>
          </g>
          <g id="Group_72" data-name="Group 72" transform="translate(27.367 2.11)">
            <path id="Path_152" data-name="Path 152" d="M-435.31-223.285c-.57-.347,5.229,17.535,4.622,29.531s-.965,55.727.254,56.635,9.391-4.674,10.8-6.644-1.84-28.833-3.23-33.112-2.685-8.1-3.029-9.269a54.136,54.136,0,0,1-.965-8.534c.2-.378,2.932-2.927,3.382-6.228s-6.678-17.536-7.162-18.466S-434.933-223.056-435.31-223.285Z" transform="translate(435.349 223.29)" fill="#fff"/>
            <path id="Path_153" data-name="Path 153" d="M-412.03-165.164a70.845,70.845,0,0,1-1.608-10.678l0,0c1.711-1.931,3.658-4.726,3.41-7.445a16.831,16.831,0,0,0-1.327-4.425,11.316,11.316,0,0,0-1-3.46c-.015-.035-.075-.012-.062.024a17.079,17.079,0,0,1,.526,2.084,37.366,37.366,0,0,0-1.8-3.777c-.025-.046-.092-.009-.071.039a61.53,61.53,0,0,1,3.081,8.166c.855,3.173-.971,6.192-3.021,8.509a38.454,38.454,0,0,0,1.257,10.3c1.191,3.76,2.49,7.486,3.619,11.265a.052.052,0,0,0,.1-.024C-409.742-158.173-411.046-161.623-412.03-165.164Z" transform="translate(422.316 204.746)" fill="#2f2962"/>
          </g>
          <path id="Path_154" data-name="Path 154" d="M-457.392-173.778c-.572-.141-.977-13.463-1.651-16.139s-5.173-13.048-5.337-13.827,3.272-5.7,3.087-5.852-4.489,1.863-4.931,1.318c-.4-.487.61-12.271.994-14.721.044-.264.857-1.8,1.1-1.309,3.073,6.186,4.784,19.729,6.039,26.959C-457.5-193.948-457.357-184.31-457.392-173.778Z" transform="translate(481.59 226.08)" fill="#fff"/>
          <g id="Group_73" data-name="Group 73" transform="translate(15.177 2.26)">
            <path id="Path_155" data-name="Path 155" d="M-458.492-181.865a47.723,47.723,0,0,0-.626-7.086c-.8-3.456-5.259-13.5-5.235-13.555.509-1.17,2.533-5.167,2.9-6.043.05-.119.1-.241-.155-.152-.755.257-4.1,1.532-4.52,1.334-.329-.155.413-14.035,1.172-15.468.041-.077-.1-.1-.137-.024-1.1,2.3-1.822,14.78-1.287,15.807a.214.214,0,0,0,.235.105,20.983,20.983,0,0,0,4.381-1.484,58.242,58.242,0,0,0-3.058,5.859c1.692,4.539,4.243,9.063,5.338,13.965a63.891,63.891,0,0,1,.788,7.818c.227,2.362.531,4.715.964,7.049.014.078.128.048.118-.028C-457.951-176.463-458.282-179.157-458.492-181.865Z" transform="translate(466.563 222.907)" fill="#2f2962"/>
          </g>
          <g id="Group_74" data-name="Group 74" transform="translate(27.275 2.115)">
            <path id="Path_156" data-name="Path 156" d="M-435.453-223.277c-.852.15,2.7,15.573,3.1,18.687s1.037,31.753,1.037,31.753,1.189-16.895,1.51-17.821,1.635-13.932,1.583-14.51-4.015-4.826-4.08-5.044,3.339.4,3.49.193S-435.049-223.349-435.453-223.277Z" transform="translate(435.585 223.278)" fill="#fff"/>
            <path id="Path_157" data-name="Path 157" d="M-426.96-204.21a38.634,38.634,0,0,0-4.085-4.872,19.8,19.8,0,0,0,3.407.251c.2-.278-3.732-8.834-6.315-12.691-.013-.019-.043,0-.032.017,2.217,4,4.074,8.177,5.886,12.373a29.643,29.643,0,0,0-3.139-.109.081.081,0,0,0-.072.133c1.271,1.656,3.965,5.02,4.031,5.023-.656,5.138-1.352,10.267-2.033,15.4a77.409,77.409,0,0,0-.866,15.564c0,.026.041.028.041,0a107.687,107.687,0,0,1,1.191-15.553C-428.22-193.82-427.2-199.007-426.96-204.21Z" transform="translate(434.611 222.213)" fill="#2f2962"/>
          </g>
          <g id="Group_76" data-name="Group 76" transform="translate(0 9.313)">
            <path id="Path_158" data-name="Path 158" d="M-495.339-204.845a24.632,24.632,0,0,0-5.545,10.232c-1.419,5.527-4.63,24.472-4.542,26.185s9.423,13.21,10.842,13.646c.432.133,2.353-1.62,3.858-3.51,1.238-1.555,2.354-3.217,2.375-3.81.025-.676-6.613-8.836-6.48-9.517s1.537-11.1,2.385-14.625C-491.972-188.221-495.339-204.845-495.339-204.845Z" transform="translate(505.429 204.845)" fill="#fff"/>
            <g id="Group_75" data-name="Group 75" transform="translate(7.471 4.06)">
              <path id="Path_159" data-name="Path 159" d="M-483.5-194.441c-.022-.023-.057.009-.036.034,3.023,3.6,3.6,8.126,4.226,12.621.005.037.07.031.067-.007C-479.657-186.249-480.338-191.028-483.5-194.441Z" transform="translate(484.62 194.449)" fill="#2f2962"/>
              <path id="Path_160" data-name="Path 160" d="M-476.482-133.334c-1.5-2.348-3.125-4.609-4.8-6.829a16.091,16.091,0,0,0-1.3-1.737,2.038,2.038,0,0,0-.43-.556c0-.005,0-.009.005-.014.484-3.512,1.236-7,1.813-10.511.264-.615.508-1.24.776-1.851.021-.047-.055-.081-.081-.037q-.282.477-.548.966c.172-1.11.325-2.221.439-3.335a.034.034,0,0,0-.066-.011,118.319,118.319,0,0,0-2.714,14.512,6.286,6.286,0,0,0-1.79-.681.018.018,0,0,0-.011.034,7.963,7.963,0,0,1,1.469.677,2.054,2.054,0,0,1,.3.234.123.123,0,0,1,0,.018,9.668,9.668,0,0,0-2.662-.244.034.034,0,0,0-.011.066c.8.208,2.1.178,2.777.624a11.19,11.19,0,0,1,2.058,2.575c1.547,2.051,3.025,4.151,4.524,6.238C-476.631-133.051-476.38-133.174-476.482-133.334Z" transform="translate(486.188 171.79)" fill="#2f2962"/>
              <path id="Path_161" data-name="Path 161" d="M-482.97-81.891c-1.037-1.092-2.193-2.055-3.288-3.085-.021-.02-.053.009-.033.031,1.026,1.094,1.986,2.249,3.074,3.285C-483.06-81.511-482.819-81.731-482.97-81.891Z" transform="translate(486.297 127.73)" fill="#2f2962"/>
            </g>
          </g>
          <g id="Group_79" data-name="Group 79" transform="translate(28.22 27.905)">
            <g id="Group_78" data-name="Group 78">
              <rect id="Rectangle_16" data-name="Rectangle 16" width="20.684" height="26.926" rx="4.095" transform="translate(8.186 1.088) rotate(17.698)" fill="#bfddda"/>
              <g id="Group_77" data-name="Group 77" transform="translate(12.969)">
                <rect id="Rectangle_17" data-name="Rectangle 17" width="9.803" height="2.971" rx="1.485" transform="translate(0.906 1.446) rotate(17.764)" fill="#fff"/>
                <path id="Path_162" data-name="Path 162" d="M-386.64-154.929l-.466,1.453-1.15-.368.214-.667a.67.67,0,0,0-.433-.842l-1.519-.487a.67.67,0,0,0-.842.433l-.214.667-1.15-.368.465-1.453a.966.966,0,0,1,1.219-.627l3.246,1.04A.97.97,0,0,1-386.64-154.929Z" transform="translate(395.227 157.235)" fill="#fff"/>
              </g>
            </g>
            <path id="Path_163" data-name="Path 163" d="M-379.888-110.972c-.687-.644-5.808-2.809-6.567-2.44-.884.429,3.861,2.923,3.846,2.99-.019.087-4.4-2.89-5.181-2.252-.669.548,4.414,3.59,4.414,3.59s-4.726-3.09-5.3-2.586c-.654.571,3.939,3.877,3.878,3.9,0,0-3.223-2.475-3.892-2.153-.58.278,2.136,2.69,2.926,3.683s3.524.547,4.311.11S-379.018-110.157-379.888-110.972Z" transform="translate(406.109 130.551)" fill="#e1916e"/>
          </g>
        </g>
        <g id="Group_86" data-name="Group 86" transform="translate(7.655 31.989)">
          <path id="Path_164" data-name="Path 164" d="M-471.182-221.815c-.1-3.478,5.355-4.719,7.954-5.074,3.31-.452,6.18-.143,7.668,3.088a37.111,37.111,0,0,1,2.589,10.36.508.508,0,0,0,1.009-.123c-.55-4-1.2-11.568-5.143-13.748-3.9-2.158-15.257-.273-15.086,5.62.019.653,1.027.526,1.009-.123Z" transform="translate(477.517 228.177)" fill="#2f2962"/>
          <g id="Group_81" data-name="Group 81" transform="translate(22.949 14.247)">
            <path id="Path_165" data-name="Path 165" d="M-422.409-189.643a2.334,2.334,0,0,1-2.034,2.6,2.334,2.334,0,0,1-2.6-2.034,2.333,2.333,0,0,1,2.034-2.6A2.334,2.334,0,0,1-422.409-189.643Z" transform="translate(427.06 191.695)" fill="#768ff6"/>
            <path id="Path_166" data-name="Path 166" d="M-421.881-188.081a1.405,1.405,0,0,1-1.225,1.565,1.4,1.4,0,0,1-1.564-1.225,1.4,1.4,0,0,1,1.224-1.564A1.4,1.4,0,0,1-421.881-188.081Z" transform="translate(425.61 190.245)" fill="#e4eff8"/>
          </g>
          <g id="Group_85" data-name="Group 85" transform="translate(0 5.723)">
            <g id="Group_84" data-name="Group 84" transform="translate(0 11.431)">
              <g id="Group_82" data-name="Group 82" transform="translate(6.229 0.213)">
                <path id="Path_167" data-name="Path 167" d="M-464.457-183.7c2.185,9.845,1.7,12.21.842,13.3a6.488,6.488,0,0,1-2.359,1.757l-.27-.655.135.327-.135-.327a5.848,5.848,0,0,0,2.072-1.539c.617-.787,1.188-2.96-.976-12.709Z" transform="translate(467.662 183.705)" fill="#bec1df"/>
                <rect id="Rectangle_18" data-name="Rectangle 18" width="1.509" height="2.452" rx="0.754" transform="translate(0.678 16.001) rotate(-116.708)" fill="#768ff6"/>
              </g>
              <g id="Group_83" data-name="Group 83">
                <path id="Path_168" data-name="Path 168" d="M-482.763-184.043c-2.221,7.268-2.846,11.27-1.966,12.593a5.816,5.816,0,0,0,1.945,1.7l-.32.632a6.483,6.483,0,0,1-2.215-1.936c-1.049-1.576-.5-5.4,1.878-13.193Z" transform="translate(485.827 184.25)" fill="#bec1df"/>
                <path id="Rectangle_19" data-name="Rectangle 19" d="M.754,0h0a.754.754,0,0,1,.754.754V1.7a.754.754,0,0,1-.754.754h0A.754.754,0,0,1,0,1.7V.754A.754.754,0,0,1,.754,0Z" transform="matrix(0.518, -0.855, 0.855, 0.518, 1.559, 14.879)" fill="#768ff6"/>
              </g>
            </g>
            <path id="Path_169" data-name="Path 169" d="M-480.441-202.408a40.791,40.791,0,0,1,1.452-4.753,4.248,4.248,0,0,1,1.486-1.683,7.13,7.13,0,0,0,.1-2.261,5.43,5.43,0,0,1,.141-2.213.7.7,0,0,1,.973-.012,5.43,5.43,0,0,1,.2,2.209,7.042,7.042,0,0,0,.157,2.257,4.635,4.635,0,0,1,1.448,1.663,33.631,33.631,0,0,1,1.5,4.861c.186,1.054-.162,1.169-.465,1.26-.43.128-.687-.171-.975-1.339-.456-1.852-1-4.959-2.275-5v0c-1.27.079-1.91,3.323-2.388,5.127-.3,1.129-.544,1.23-.977,1.114C-480.371-201.263-480.681-201.405-480.441-202.408Z" transform="translate(482.596 213.521)" fill="#768ff6"/>
          </g>
        </g>
        <g id="Group_99" data-name="Group 99" transform="translate(1.492 0)">
          <g id="Group_87" data-name="Group 87">
            <path id="Path_170" data-name="Path 170" d="M-478.626-308.876s-4.122-3.2-10.136.776c-6.851,4.529-4.7,11.96-6.5,16.208s-6.115,5.248-5.138,10.032c.837,4.1,14.058,5.17,20.69,4.288,8.18-1.088,14.057-3.986,14.91-7.442s-4.066-5.567-4.418-8.189S-469.213-309.2-478.626-308.876Z" transform="translate(500.957 310.092)" fill="#2f2962"/>
            <path id="Path_171" data-name="Path 171" d="M-492.915-295.342a21.369,21.369,0,0,0-2.347,6.8,17.347,17.347,0,0,1-1.011,4.767,13.846,13.846,0,0,1-2.692,3.673c-1.341,1.405-2.878,2.941-2.614,5.06a3.847,3.847,0,0,0,3.341,3.33c.041.007.052-.062.012-.071a3.892,3.892,0,0,1-2.973-2.868,4.542,4.542,0,0,1,1.471-4.086,23.549,23.549,0,0,0,3.527-4.245c.971-1.754,1.045-3.607,1.325-5.546a25.766,25.766,0,0,1,1.971-6.811C-492.9-295.343-492.911-295.349-492.915-295.342Z" transform="translate(501.607 301.104)" fill="#2f2962"/>
            <path id="Path_172" data-name="Path 172" d="M-420.658-281.6c-1.065-2.086-3.258-3.216-4.24-5.39-1.8-3.979-.768-8.943-3.892-12.346-.027-.029-.067.011-.044.041,2.608,3.384,1.975,7.8,3.346,11.636a9.9,9.9,0,0,0,2.7,3.912c1.855,1.779,3.474,4.329,1.649,6.78-.057.077.065.148.123.078A4.179,4.179,0,0,0-420.658-281.6Z" transform="translate(457.257 303.54)" fill="#2f2962"/>
            <path id="Path_173" data-name="Path 173" d="M-489.835-301.224c-2.635,1.835-3.581,4.558-4.225,7.588-.356,1.676-.64,3.368-1.141,5.009a21.255,21.255,0,0,1-2.492,5.032c-1.286,2.067-2.749,4.819-1.5,7.254,1.362,2.662,4.714,2.657,7.28,2.539.071,0,.076-.114,0-.112-3.139.116-7.605-.311-7.546-4.493.042-2.967,2.27-5.122,3.551-7.611,2.55-4.952,1.418-11.359,6.12-15.136C-489.748-301.185-489.8-301.252-489.835-301.224Z" transform="translate(500.426 304.691)" fill="#2f2962"/>
          </g>
          <g id="Group_88" data-name="Group 88" transform="translate(15.417 21.828)">
            <path id="Path_174" data-name="Path 174" d="M-452.438-241.111s.674,9.548-.543,9.935c-2.334.742-6.936-9.742-7.282-10.415a40.9,40.9,0,0,1-1.119-5.514l-.105-.779c-.035-.26-.065-.508-.089-.757-.038-.331-.071-.657-.1-.983-.25-2.463-.447-4.571-.447-4.571l1.177.343,8.241,2.761.172,6.317.014.386v.127l.045,1.905v.016Z" transform="translate(462.127 254.195)" fill="#e1916e"/>
            <path id="Path_175" data-name="Path 175" d="M-452.523-244.388a6.583,6.583,0,0,1-3.112.553,8.212,8.212,0,0,1-5.747-3.269l-.105-.779c-.035-.26-.065-.508-.089-.757-.038-.331-.071-.657-.1-.983-.25-2.463-.447-4.571-.447-4.571l1.177.343,8.241,2.761.172,6.317Z" transform="translate(462.127 254.195)" fill="#9a593b"/>
          </g>
          <g id="Group_95" data-name="Group 95" transform="translate(8.176 1.862)">
            <path id="Path_176" data-name="Path 176" d="M-433.173-299.115s3.651.651,4.654,5.211a9.709,9.709,0,0,1-1.995,7.744C-431.348-285.531-435.3-296.686-433.173-299.115Z" transform="translate(452.099 301.54)" fill="#2f2962"/>
            <path id="Path_177" data-name="Path 177" d="M-454.168-288.972c.233,11.195-6.022,11.943-7.919,12.3-2.154.407-10.6.256-11.987-10.854s3.743-14.757,8.75-15.121S-454.4-300.166-454.168-288.972Z" transform="translate(476.791 303.71)" fill="#e1916e"/>
            <g id="Group_93" data-name="Group 93" transform="translate(10.181 11.03)">
              <g id="Group_89" data-name="Group 89" transform="translate(0.666 3.771)">
                <path id="Path_178" data-name="Path 178" d="M-449.709-265.613c-.009-.028-.055.043-.05.074.114.754.119,1.637-.536,1.97-.02.01-.014.048.011.041C-449.462-263.745-449.479-264.917-449.709-265.613Z" transform="translate(451.317 266.323)" fill="#2f2962"/>
                <path id="Path_179" data-name="Path 179" d="M-452.057-267.421c-1.229.053-1.031,2.507.107,2.457C-450.83-265.012-451.027-267.465-452.057-267.421Z" transform="translate(452.894 267.422)" fill="#2f2962"/>
              </g>
              <g id="Group_90" data-name="Group 90" transform="translate(7.986 3.249)">
                <path id="Path_180" data-name="Path 180" d="M-434.086-266.76c.007-.029.059.038.057.069-.039.762.045,1.641.73,1.907.021.008.018.046-.007.042C-434.145-264.877-434.245-266.045-434.086-266.76Z" transform="translate(434.149 267.544)" fill="#2f2962"/>
                <path id="Path_181" data-name="Path 181" d="M-433.357-268.756c1.228-.07,1.277,2.391.139,2.456C-434.337-266.237-434.386-268.7-433.357-268.756Z" transform="translate(434.116 268.758)" fill="#2f2962"/>
              </g>
              <path id="Path_182" data-name="Path 182" d="M-447.634-251.023c.172.189.341.444.615.483a2.008,2.008,0,0,0,.829-.145.027.027,0,0,1,.031.041,1.027,1.027,0,0,1-.99.358.812.812,0,0,1-.56-.708C-447.718-251.038-447.659-251.051-447.634-251.023Z" transform="translate(450.4 261.207)" fill="#9a593b"/>
              <path id="Path_183" data-name="Path 183" d="M-433.568-275.8a7.332,7.332,0,0,1-.757-.156,1.25,1.25,0,0,1-.742-.307.4.4,0,0,1,0-.487.987.987,0,0,1,.973-.235,1.45,1.45,0,0,1,.913.509A.425.425,0,0,1-433.568-275.8Z" transform="translate(442.746 277.038)" fill="#2f2962"/>
              <path id="Path_184" data-name="Path 184" d="M-454.08-274.467a7.483,7.483,0,0,0,.738-.231,1.252,1.252,0,0,0,.708-.38.4.4,0,0,0-.047-.484.987.987,0,0,0-.991-.137,1.449,1.449,0,0,0-.858.6A.425.425,0,0,0-454.08-274.467Z" transform="translate(454.6 276.279)" fill="#2f2962"/>
              <g id="Group_91" data-name="Group 91" transform="translate(3.105 8.161)">
                <path id="Path_185" data-name="Path 185" d="M-444-255.446a3.127,3.127,0,0,1-1.165,1.071,1.4,1.4,0,0,1-.846.125c-.629-.11-.692-.673-.62-1.166a3.37,3.37,0,0,1,.214-.763A4.045,4.045,0,0,0-444-255.446Z" transform="translate(446.65 256.179)" fill="#2f2962"/>
                <path id="Path_186" data-name="Path 186" d="M-445.16-253.184a1.4,1.4,0,0,1-.846.125c-.629-.11-.692-.673-.62-1.166A1.452,1.452,0,0,1-445.16-253.184Z" transform="translate(446.65 254.988)" fill="#fadad4"/>
              </g>
              <g id="Group_92" data-name="Group 92" transform="translate(3.287)">
                <path id="Path_187" data-name="Path 187" d="M-443.516-269.652s.158,1.139.158,1.676c0,.05-.13.074-.312.085-.009,0-.014.006-.021,0a2.552,2.552,0,0,1-2.48-.952c-.037-.053.031-.108.08-.075a3.85,3.85,0,0,0,2.332.667c.038-.149-.335-1.941-.25-1.947a4.668,4.668,0,0,1,1.22.276c-.26-2.381-.9-4.7-1.122-7.076a.073.073,0,0,1,.14-.035,38.779,38.779,0,0,1,1.533,7.57C-442.2-269.158-443.3-269.561-443.516-269.652Z" transform="translate(446.182 277.078)" fill="#9a593b"/>
              </g>
            </g>
            <path id="Path_188" data-name="Path 188" d="M-475.552-288.451c1.849.168,3.042-4.808,3.042-4.808s12.44-1.723,12.387-9.64c0,0-7.077-5.482-13.887.04S-477.241-288.6-475.552-288.451Z" transform="translate(479.05 305.324)" fill="#2f2962"/>
            <g id="Group_94" data-name="Group 94" transform="translate(0 14.483)">
              <path id="Path_189" data-name="Path 189" d="M-476.118-265.248s-2.209-3.648-3.848-2.883-.139,5.942,1.673,6.755a1.893,1.893,0,0,0,2.6-.849Z" transform="translate(480.67 268.236)" fill="#e1916e"/>
              <path id="Path_190" data-name="Path 190" d="M-477.714-264.195a.026.026,0,0,0-.013.049,4.785,4.785,0,0,1,2.272,3.151,1.045,1.045,0,0,0-1.542-.388c-.036.022-.007.077.031.072a1.165,1.165,0,0,1,1.252.49,5.637,5.637,0,0,1,.545,1.075c.053.121.267.072.232-.065l-.009-.031C-474.8-261.5-475.942-263.91-477.714-264.195Z" transform="translate(478.886 265.773)" fill="#9a593b"/>
            </g>
          </g>
          <g id="Group_98" data-name="Group 98" transform="translate(8.497 16.735)">
            <path id="Path_191" data-name="Path 191" d="M-479.849-258.544a10.242,10.242,0,0,0,2.115,4.271,11.5,11.5,0,0,0,5.345,3.384c.2.072.267-.263.062-.336a10.821,10.821,0,0,1-5.31-4.08c-.011,0-.011,0-.007,0-.078-.053-.152-.114-.226-.175a4.8,4.8,0,0,1-1.762-2.491.407.407,0,0,1-.017-.048C-479.723-258.195-479.79-258.371-479.849-258.544Z" transform="translate(479.849 261.939)" fill="#fff"/>
            <path id="Path_192" data-name="Path 192" d="M-474.892-267.216a6.51,6.51,0,0,1,1.359,1.12s.008,0,.011.011a6.248,6.248,0,0,1,.729.828c.079.1.154.2.225.3.12.153.184.246.184.246l0,.018c.538.779.99,1.555,1.2,1.788.064.075.181-.018.141-.093-.579-1.079-1.639-3.915-3.234-4.2A1.735,1.735,0,0,0-474.892-267.216Z" transform="translate(476.828 267.237)" fill="#fff"/>
            <g id="Group_96" data-name="Group 96" transform="translate(4.928 1.983)">
              <path id="Path_193" data-name="Path 193" d="M-467.216-261.145c-.266-.542,3.77,1.242,7.887.258.843-.2,3.177-1.229,4.492-1.27s2.89.976,4.714,1.115c.624.048.256,5.447-1.259,7.85a8.048,8.048,0,0,1-4.03,2.63c-3.184.429-8.729-1.678-9.6-2.717C-465.7-254.113-464.7-256-467.216-261.145Z" transform="translate(467.229 262.158)" fill="#fff"/>
            </g>
            <g id="Group_97" data-name="Group 97" transform="translate(6.926 3.742)">
              <path id="Path_194" data-name="Path 194" d="M-447.271-256.578a18.689,18.689,0,0,0-3.626-1.036,5.688,5.688,0,0,0-3.024.635,13.1,13.1,0,0,1-8.163.334c-.033-.008-.043.048-.012.06a10.821,10.821,0,0,0,6.851.352c1.234-.327,2.454-1.036,3.742-1a40.012,40.012,0,0,1,4.189.867C-447.2-256.345-447.153-256.533-447.271-256.578Z" transform="translate(462.114 257.655)" fill="#bec1df"/>
              <path id="Path_195" data-name="Path 195" d="M-447.379-239.627a22.7,22.7,0,0,1-2.564,1.4,6.594,6.594,0,0,1-3.4-.145,61.078,61.078,0,0,1-5.942-1.783c-.016-.005-.021.023-.006.03a25.969,25.969,0,0,0,6.843,2.16,5.344,5.344,0,0,0,2.427.028,11.089,11.089,0,0,0,2.665-1.63C-447.333-239.59-447.352-239.642-447.379-239.627Z" transform="translate(460.4 246.992)" fill="#bec1df"/>
              <path id="Path_196" data-name="Path 196" d="M-446.114-250.713a13.874,13.874,0,0,0-6.006.013,23.982,23.982,0,0,1-7.049.091c-.023,0-.032.037-.008.041a20.458,20.458,0,0,0,6.293.129c1.014-.137,2.018-.361,3.035-.464a11.87,11.87,0,0,1,3.708.321C-446.068-250.567-446.041-250.694-446.114-250.713Z" transform="translate(460.332 253.623)" fill="#bec1df"/>
              <path id="Path_197" data-name="Path 197" d="M-445.76-244.9a10.058,10.058,0,0,1-5.918,1.494A26.994,26.994,0,0,1-457.9-244.9c-.027-.008-.036.039-.01.049,4.108,1.584,8.253,2.61,12.21.073C-445.624-244.83-445.681-244.947-445.76-244.9Z" transform="translate(459.563 249.888)" fill="#bec1df"/>
            </g>
          </g>
        </g>
      </g>
    </g>
  </g>
</svg>
