<svg xmlns="http://www.w3.org/2000/svg" xmlns:xlink="http://www.w3.org/1999/xlink" width="16" height="17.713" viewBox="0 0 16 17.713">
  <defs>
    <linearGradient id="linear-gradient" x1="0.5" x2="0.5" y2="1" gradientUnits="objectBoundingBox">
      <stop offset="0" stop-color="#05ba53"/>
      <stop offset="1" stop-color="#009540"/>
    </linearGradient>
  </defs>
  <g id="notification" transform="translate(-17.95 0)">
    <g id="Group_151" data-name="Group 151" transform="translate(17.95 0)">
      <path id="Path_263" data-name="Path 263" d="M33.94,13.233a2.052,2.052,0,0,0-2.051-1.806.224.224,0,0,1-.226-.226V7.836a5.89,5.89,0,0,0-3.8-5.494,2,2,0,0,0,.04-.391,1.951,1.951,0,0,0-3.9,0,2.089,2.089,0,0,0,.037.38,5.709,5.709,0,0,0-3.8,5.382V11.2a.226.226,0,0,1-.226.226,2.05,2.05,0,0,0-2.051,1.806,2,2,0,0,0,1.991,2.194H23.4a2.57,2.57,0,0,0,5.108,0h3.445a2,2,0,0,0,1.991-2.194ZM25.95,1.143a.81.81,0,0,1,.808.808.7.7,0,0,1-.011.109,5.063,5.063,0,0,0-.589-.054,5.887,5.887,0,0,0-1.006.057.7.7,0,0,1-.011-.109.81.81,0,0,1,.809-.811Zm0,15.427a1.433,1.433,0,0,1-1.4-1.143h2.8A1.433,1.433,0,0,1,25.95,16.57ZM32.583,14a.85.85,0,0,1-.634.28h-12a.851.851,0,0,1-.634-.28.839.839,0,0,1-.217-.663.9.9,0,0,1,.914-.771A1.37,1.37,0,0,0,21.381,11.2V7.714A4.573,4.573,0,0,1,25.95,3.143c.057,0,.111,0,.169,0a4.674,4.674,0,0,1,4.4,4.691V11.2a1.37,1.37,0,0,0,1.368,1.368.9.9,0,0,1,.914.771A.855.855,0,0,1,32.583,14Z" transform="translate(-17.95 0)" fill="url(#linear-gradient)"/>
      <path id="Path_264" data-name="Path 264" d="M19.089,49.312a.571.571,0,0,0,.557-.449,6.678,6.678,0,0,1,1.817-3.305.572.572,0,0,0-.808-.808,7.817,7.817,0,0,0-2.125,3.871.568.568,0,0,0,.434.68.661.661,0,0,0,.126.011Z" transform="translate(-18.489 -42.456)" fill="url(#linear-gradient)"/>
      <path id="Path_265" data-name="Path 265" d="M289.944,49.254a.6.6,0,0,0,.123-.014.569.569,0,0,0,.434-.68,7.83,7.83,0,0,0-2.126-3.871.572.572,0,0,0-.808.808,6.7,6.7,0,0,1,1.817,3.305A.576.576,0,0,0,289.944,49.254Z" transform="translate(-274.545 -42.398)" fill="url(#linear-gradient)"/>
    </g>
  </g>
</svg>
