<svg xmlns="http://www.w3.org/2000/svg" width="14" height="16.545" viewBox="0 0 14 16.545">
  <path id="Order_Completed" data-name="Order Completed" d="M1.273,1.273H12.727v14H1.273ZM0,1.273A1.273,1.273,0,0,1,1.273,0H12.727A1.273,1.273,0,0,1,14,1.273v14a1.273,1.273,0,0,1-1.273,1.273H1.273A1.273,1.273,0,0,1,0,15.273ZM3.182,9.545a.636.636,0,1,0,0,1.273H9.545a.636.636,0,0,0,0-1.273Zm-.636,3.182a.636.636,0,0,1,.636-.636H6.364a.636.636,0,1,1,0,1.273H3.182A.636.636,0,0,1,2.545,12.727ZM10,3.632a.636.636,0,0,0-.9-.9L5.727,6.1,4.9,5.277a.636.636,0,1,0-.9.9L5.277,7.45a.636.636,0,0,0,.9,0Z" fill="#fff" fill-rule="evenodd"/>
</svg>
