<svg id="Page-1" xmlns="http://www.w3.org/2000/svg" width="19" height="20.727" viewBox="0 0 19 20.727">
  <g id="_029---File-Schedule" data-name="029---File-Schedule">
    <path id="Shape" d="M49.345,38a.345.345,0,0,0-.345.345v.691a.345.345,0,0,0,.691,0v-.691A.345.345,0,0,0,49.345,38Z" transform="translate(-32.073 -24.873)" fill="#fff"/>
    <path id="Shape-2" data-name="Shape" d="M20.545,0H6.727A1.729,1.729,0,0,0,5,1.727V8.291a.345.345,0,1,0,.691,0V1.727A1.036,1.036,0,0,1,6.727.691H20.545a1.036,1.036,0,0,1,1.036,1.036V15.2H19.164a1.729,1.729,0,0,0-1.727,1.727v2.418H15.018a.345.345,0,0,0,0,.691h2.764a.341.341,0,0,0,.133-.027.345.345,0,0,0,.112-.075l4.145-4.145a.349.349,0,0,0,.1-.244V1.727A1.729,1.729,0,0,0,20.545,0ZM19.164,15.891h1.93l-2.966,2.966v-1.93A1.036,1.036,0,0,1,19.164,15.891Z" transform="translate(-3.273)" fill="#fff"/>
    <path id="Shape-3" data-name="Shape" d="M12.036,6h-.691a.345.345,0,1,0,0,.691h.691a.345.345,0,1,0,0-.691Z" transform="translate(-7.2 -3.927)" fill="#fff"/>
    <path id="Shape-4" data-name="Shape" d="M27.709,6H17.345a.345.345,0,1,0,0,.691H27.709a.345.345,0,1,0,0-.691Z" transform="translate(-11.127 -3.927)" fill="#fff"/>
    <path id="Shape-5" data-name="Shape" d="M12.036,12h-.691a.345.345,0,1,0,0,.691h.691a.345.345,0,1,0,0-.691Z" transform="translate(-7.2 -7.855)" fill="#fff"/>
    <path id="Shape-6" data-name="Shape" d="M25.636,12.345A.345.345,0,0,0,25.291,12H17.345a.345.345,0,0,0,0,.691h7.945A.345.345,0,0,0,25.636,12.345Z" transform="translate(-11.127 -7.855)" fill="#fff"/>
    <path id="Shape-7" data-name="Shape" d="M12.036,18h-.691a.345.345,0,1,0,0,.691h.691a.345.345,0,1,0,0-.691Z" transform="translate(-7.2 -11.782)" fill="#fff"/>
    <path id="Shape-8" data-name="Shape" d="M17.345,18a.345.345,0,0,0,0,.691h2.073a.345.345,0,0,0,0-.691Z" transform="translate(-11.127 -11.782)" fill="#fff"/>
    <path id="Shape-9" data-name="Shape" d="M49.691,20.345a.345.345,0,1,0-.691,0v4.836a.345.345,0,1,0,.691,0Z" transform="translate(-32.073 -13.091)" fill="#fff"/>
    <path id="Shape-10" data-name="Shape" d="M6.218,36.436A6.218,6.218,0,1,0,0,30.218,6.218,6.218,0,0,0,6.218,36.436Zm0-11.745A5.527,5.527,0,1,1,.691,30.218,5.527,5.527,0,0,1,6.218,24.691Z" transform="translate(0 -15.709)" fill="#fff"/>
    <path id="Shape-11" data-name="Shape" d="M19.174,35.153a.345.345,0,0,0,.488-.488l-1.972-1.972V28.345a.345.345,0,1,0-.691,0v4.491a.345.345,0,0,0,.1.244Z" transform="translate(-11.127 -18.327)" fill="#fff"/>
  </g>
</svg>
