<svg xmlns="http://www.w3.org/2000/svg" width="11.392" height="14.3" viewBox="0 0 11.392 14.3">
  <g id="surface1" transform="translate(-0.35 0.15)">
    <path id="Path_326" data-name="Path 326" d="M8.044.108A.339.339,0,0,0,7.8,0H2.34A1.847,1.847,0,0,0,.5,1.836V12.164A1.847,1.847,0,0,0,2.34,14H9.752a1.847,1.847,0,0,0,1.84-1.836v-8.2a.364.364,0,0,0-.1-.237Zm.1,1.086,2.31,2.425h-1.5a.805.805,0,0,1-.808-.8Zm1.61,12.13H2.34a1.171,1.171,0,0,1-1.163-1.16V1.836A1.171,1.171,0,0,1,2.34.676H7.466V2.814A1.479,1.479,0,0,0,8.951,4.295h1.965v7.869A1.169,1.169,0,0,1,9.752,13.324Zm0,0" transform="translate(0 0)" fill="#939ca8" stroke="#939ca8" stroke-width="0.3"/>
    <path id="Path_327" data-name="Path 327" d="M95.076,401.934H89.51a.338.338,0,1,0,0,.676h5.57a.338.338,0,1,0,0-.676Zm0,0" transform="translate(-86.247 -390.944)" fill="#939ca8" stroke="#939ca8" stroke-width="0.3"/>
    <path id="Path_328" data-name="Path 328" d="M118.973,172.992l1.393-1.5v3.693a.338.338,0,0,0,.676,0v-3.693l1.393,1.5a.337.337,0,0,0,.494-.46l-1.982-2.127a.336.336,0,0,0-.494,0l-1.982,2.127a.337.337,0,0,0,.017.477A.345.345,0,0,0,118.973,172.992Zm0,0" transform="translate(-114.658 -165.64)" fill="#939ca8" stroke="#939ca8" stroke-width="0.3"/>
  </g>
</svg>
