<svg id="Layer_48" data-name="Layer 48" xmlns="http://www.w3.org/2000/svg" width="20.027" height="18.543" viewBox="0 0 20.027 18.543">
  <path id="Path_224" data-name="Path 224" d="M22.669,27.854A.322.322,0,0,0,23,27.545V26.309A.322.322,0,0,0,22.669,26H21.334a.322.322,0,0,0-.334.309v1.236a.322.322,0,0,0,.334.309Zm-1-1.236h.668v.618h-.668Z" transform="translate(-14.658 -18.583)" fill="#939ca8"/>
  <path id="Path_225" data-name="Path 225" d="M29.334,27.854h1.335A.322.322,0,0,0,31,27.545V26.309A.322.322,0,0,0,30.669,26H29.334a.322.322,0,0,0-.334.309v1.236A.322.322,0,0,0,29.334,27.854Zm.334-1.236h.668v.618h-.668Z" transform="translate(-19.988 -18.583)" fill="#939ca8"/>
  <path id="Path_226" data-name="Path 226" d="M37.334,27.854h1.335A.322.322,0,0,0,39,27.545V26.309A.322.322,0,0,0,38.669,26H37.334a.322.322,0,0,0-.334.309v1.236A.322.322,0,0,0,37.334,27.854Zm.334-1.236h.668v.618h-.668Z" transform="translate(-25.318 -18.583)" fill="#939ca8"/>
  <path id="Path_227" data-name="Path 227" d="M26.669,14H25.334a.322.322,0,0,0-.334.309v1.236a.322.322,0,0,0,.334.309h1.335A.322.322,0,0,0,27,15.545V14.309A.322.322,0,0,0,26.669,14Zm-.334,1.236h-.668v-.618h.668Z" transform="translate(-17.323 -10.291)" fill="#939ca8"/>
  <path id="Path_228" data-name="Path 228" d="M34.669,14H33.334a.322.322,0,0,0-.334.309v1.236a.322.322,0,0,0,.334.309h1.335A.322.322,0,0,0,35,15.545V14.309A.322.322,0,0,0,34.669,14Zm-.334,1.236h-.668v-.618h.668Z" transform="translate(-22.653 -10.291)" fill="#939ca8"/>
  <path id="Path_229" data-name="Path 229" d="M26.669,6H25.334A.322.322,0,0,0,25,6.309V7.545a.322.322,0,0,0,.334.309h1.335A.322.322,0,0,0,27,7.545V6.309A.322.322,0,0,0,26.669,6Zm-.334,1.236h-.668V6.618h.668Z" transform="translate(-17.323 -4.764)" fill="#939ca8"/>
  <path id="Path_230" data-name="Path 230" d="M34.669,6H33.334A.322.322,0,0,0,33,6.309V7.545a.322.322,0,0,0,.334.309h1.335A.322.322,0,0,0,35,7.545V6.309A.322.322,0,0,0,34.669,6Zm-.334,1.236h-.668V6.618h.668Z" transform="translate(-22.653 -4.764)" fill="#939ca8"/>
  <path id="Path_231" data-name="Path 231" d="M50.669,44H49.334a.322.322,0,0,0-.334.309v1.236a.322.322,0,0,0,.334.309h1.335A.322.322,0,0,0,51,45.545V44.309A.322.322,0,0,0,50.669,44Zm-.334,1.236h-.668v-.618h.668Z" transform="translate(-33.312 -31.02)" fill="#939ca8"/>
  <path id="Path_232" data-name="Path 232" d="M50.669,36H49.334a.322.322,0,0,0-.334.309v1.236a.322.322,0,0,0,.334.309h1.335A.322.322,0,0,0,51,37.545V36.309A.322.322,0,0,0,50.669,36Zm-.334,1.236h-.668v-.618h.668Z" transform="translate(-33.312 -25.492)" fill="#939ca8"/>
  <path id="Path_233" data-name="Path 233" d="M50.669,52H49.334a.322.322,0,0,0-.334.309v1.236a.322.322,0,0,0,.334.309h1.335A.322.322,0,0,0,51,53.545V52.309A.322.322,0,0,0,50.669,52Zm-.334,1.236h-.668v-.618h.668Z" transform="translate(-33.312 -36.547)" fill="#939ca8"/>
  <path id="Path_234" data-name="Path 234" d="M10.669,44H9.334A.322.322,0,0,0,9,44.309v1.236a.322.322,0,0,0,.334.309h1.335A.322.322,0,0,0,11,45.545V44.309A.322.322,0,0,0,10.669,44Zm-.334,1.236H9.668v-.618h.668Z" transform="translate(-6.664 -31.02)" fill="#939ca8"/>
  <path id="Path_235" data-name="Path 235" d="M10.669,36H9.334A.322.322,0,0,0,9,36.309v1.236a.322.322,0,0,0,.334.309h1.335A.322.322,0,0,0,11,37.545V36.309A.322.322,0,0,0,10.669,36Zm-.334,1.236H9.668v-.618h.668Z" transform="translate(-6.664 -25.492)" fill="#939ca8"/>
  <path id="Path_236" data-name="Path 236" d="M10.669,52H9.334A.322.322,0,0,0,9,52.309v1.236a.322.322,0,0,0,.334.309h1.335A.322.322,0,0,0,11,53.545V52.309A.322.322,0,0,0,10.669,52Zm-.334,1.236H9.668v-.618h.668Z" transform="translate(-6.664 -36.547)" fill="#939ca8"/>
  <path id="Path_237" data-name="Path 237" d="M21.693,19.925h-.668V11.581a.322.322,0,0,0-.334-.309H17.02V8.49a.322.322,0,0,0-.334-.309h-1V2.309A.322.322,0,0,0,15.351,2H8.676a.322.322,0,0,0-.334.309V8.181h-1a.322.322,0,0,0-.334.309v2.782H3.335A.322.322,0,0,0,3,11.581v8.345H2.334a.31.31,0,1,0,0,.618H21.693a.31.31,0,1,0,0-.618Zm-14.686,0H3.669V11.89H7.007Zm2-17.307h6.008V8.181H9.009Zm2.67,17.307H10.011V17.453H11.68Zm2.336,0H12.347V17.453h1.669Zm2.336,0H14.684V17.144a.322.322,0,0,0-.334-.309H9.677a.322.322,0,0,0-.334.309v2.782H7.674V8.8h8.678Zm4.005,0H17.02V11.89h3.338Z" transform="translate(-2 -2)" fill="#939ca8"/>
  <path id="Path_238" data-name="Path 238" d="M29.339,34H25.334a.322.322,0,0,0-.334.309v3.709a.322.322,0,0,0,.334.309h4.005a.322.322,0,0,0,.334-.309V34.309A.322.322,0,0,0,29.339,34Zm-.334,3.709H25.668V34.618h3.338Z" transform="translate(-17.323 -24.11)" fill="#939ca8"/>
  <path id="Path_239" data-name="Path 239" d="M29.668,39.854h.668v-.618H31v-.618h-.668V38h-.668v.618H29v.618h.668Z" transform="translate(-19.988 -26.874)" fill="#939ca8"/>
</svg>
